<?xml version="1.0" encoding="utf-8"?>
<!-- Generator: Adobe Illustrator 22.0.1, SVG Export Plug-In . SVG Version: 6.00 Build 0)  -->
<svg version="1.1" id="레이어_1" xmlns="http://www.w3.org/2000/svg" xmlns:xlink="http://www.w3.org/1999/xlink" x="0px"
	 y="0px" viewBox="0 0 65.5 59.6" style="enable-background:new 0 0 65.5 59.6;" xml:space="preserve">
<style type="text/css">
	.st0{fill:#9A8FB7;}
</style>
<g id="Layer_2">
	<g id="Layer_1-2">
		<path class="st0" d="M22.6,27.8c-0.3,0-0.5-0.1-0.7-0.3c-2.6-2.6-6.7-2.6-9.3,0c0,0,0,0,0,0c-0.4,0.4-1,0.4-1.4,0s-0.4-1,0-1.4
			c3.3-3.3,8.8-3.3,12.1,0c0.4,0.4,0.4,1,0,1.4c0,0,0,0,0,0C23.1,27.7,22.8,27.8,22.6,27.8z"/>
		<path class="st0" d="M26.1,24.3c-0.3,0-0.5-0.1-0.7-0.3c-4.5-4.5-11.8-4.5-16.3,0c-0.4,0.3-1.1,0.3-1.4-0.2
			c-0.3-0.4-0.3-0.9,0-1.2c5.3-5.3,13.8-5.3,19.1,0c0,0,0,0,0,0c0.4,0.4,0.4,1,0,1.4C26.6,24.2,26.3,24.3,26.1,24.3z"/>
		<path class="st0" d="M29.6,20.8c-0.3,0-0.5-0.1-0.7-0.3c-6.4-6.4-16.8-6.4-23.2,0c0,0,0,0,0,0c-0.4,0.4-1,0.4-1.4,0s-0.4-1,0-1.4
			c7.2-7.2,18.9-7.2,26.1,0c0.4,0.4,0.4,1,0,1.4c0,0,0,0,0,0C30.1,20.7,29.8,20.8,29.6,20.8z"/>
		<circle class="st0" cx="16.8" cy="31.3" r="1.2"/>
		<path class="st0" d="M61.8,55.6h-58C1.7,55.6,0,54,0,51.9c0,0,0,0,0,0V41.2c0-2.1,1.7-3.7,3.7-3.7h58c2.1,0,3.7,1.7,3.7,3.7v10.7
			C65.5,53.9,63.8,55.6,61.8,55.6z M3.8,39.4c-1,0-1.8,0.7-1.8,1.7c0,0,0,0,0,0v10.7c0,1,0.8,1.7,1.7,1.7c0,0,0,0,0,0h58
			c1,0,1.7-0.8,1.7-1.7v0V41.2c0-1-0.8-1.7-1.7-1.7h0L3.8,39.4z"/>
		<path class="st0" d="M57.9,38.7H48c-0.6,0-1-0.4-1-1v-9.9c0-0.6,0.4-1,1-1h9.9c0.6,0,1,0.4,1,1v9.9C58.9,38.3,58.5,38.7,57.9,38.7
			C57.9,38.7,57.9,38.7,57.9,38.7z M49,36.7h7.9v-7.9H49L49,36.7z"/>
		<path class="st0" d="M55.1,28.8h-4.2c-0.6,0-1-0.4-1-1V3.1C49.8,1.4,51.2,0,53,0s3.1,1.4,3.1,3.1v24.7
			C56.1,28.3,55.6,28.8,55.1,28.8z M51.8,26.8h2.2V3.1C54.1,2.5,53.6,2,53,2s-1.1,0.5-1.1,1.1V26.8z"/>
		<path class="st0" d="M14.6,59.6h-8c-0.6,0-1-0.4-1-1v-3.2c0-0.6,0.4-1,1-1s1,0.4,1,1v2.2h6v-2.2c0-0.6,0.4-1,1-1s1,0.4,1,1v3.2
			C15.6,59.1,15.1,59.6,14.6,59.6z"/>
		<path class="st0" d="M57,59.6h-8c-0.6,0-1-0.4-1-1v-3.2c0-0.6,0.4-1,1-1s1,0.4,1,1v2.2h6v-2.2c0-0.6,0.4-1,1-1s1,0.4,1,1v3.2
			C58,59.1,57.6,59.6,57,59.6z"/>
		<path class="st0" d="M8.8,48.3c-1.7,0-3.1-1.4-3.1-3.1c0-1.7,1.4-3.1,3.1-3.1c1.7,0,3.1,1.4,3.1,3.1c0,0,0,0,0,0
			C11.9,46.9,10.5,48.3,8.8,48.3z M8.8,44c-0.6,0-1.1,0.5-1.1,1.1c0,0.6,0.5,1.1,1.1,1.1c0.6,0,1.1-0.5,1.1-1.1c0,0,0,0,0,0
			C10,44.5,9.4,44,8.8,44C8.8,44,8.8,44,8.8,44L8.8,44z"/>
		<path class="st0" d="M17.2,48.3c-1.7,0-3.1-1.4-3.1-3.1c0-1.7,1.4-3.1,3.1-3.1c1.7,0,3.1,1.4,3.1,3.1c0,0,0,0,0,0
			C20.4,46.9,19,48.3,17.2,48.3C17.2,48.3,17.2,48.3,17.2,48.3z M17.2,44c-0.6,0-1.1,0.5-1.1,1.1c0,0.6,0.5,1.1,1.1,1.1
			s1.1-0.5,1.1-1.1l0,0C18.4,44.5,17.9,44,17.2,44C17.3,44,17.2,44,17.2,44L17.2,44z"/>
		<path class="st0" d="M26,48.3c-1.7,0-3.1-1.4-3.1-3.1c0-1.7,1.4-3.1,3.1-3.1c1.7,0,3.1,1.4,3.1,3.1c0,0,0,0,0,0
			C29.1,46.9,27.7,48.3,26,48.3C26,48.3,26,48.3,26,48.3z M26,44c-0.6,0-1.1,0.5-1.1,1.1c0,0.6,0.5,1.1,1.1,1.1s1.1-0.5,1.1-1.1l0,0
			C27.1,44.5,26.6,44,26,44z"/>
		<path class="st0" d="M48,46.2h-8.9c-0.6,0-1-0.4-1-1s0.4-1,1-1H48c0.6,0,1,0.4,1,1S48.6,46.2,48,46.2z"/>
		<path class="st0" d="M56,46.2h-3.8c-0.6,0-1-0.4-1-1s0.4-1,1-1H56c0.6,0,1,0.4,1,1S56.6,46.2,56,46.2z"/>
	</g>
</g>
</svg>
