<?xml version="1.0" encoding="utf-8"?>
<!-- Generator: Adobe Illustrator 22.0.1, SVG Export Plug-In . SVG Version: 6.00 Build 0)  -->
<svg version="1.1" id="레이어_1" xmlns="http://www.w3.org/2000/svg" xmlns:xlink="http://www.w3.org/1999/xlink" x="0px"
	 y="0px" viewBox="0 0 72.7 72.8" style="enable-background:new 0 0 72.7 72.8;" xml:space="preserve">
<style type="text/css">
	.st0{fill:#64A371;}
</style>
<g id="Layer_2">
	<g id="Layer_1-2">
		<path class="st0" d="M36.4,50.9c-8,0-14.5-6.5-14.5-14.5c0-8,6.5-14.5,14.5-14.5s14.5,6.5,14.5,14.5c0,0,0,0,0,0
			C50.8,44.4,44.4,50.9,36.4,50.9z M36.4,23.9c-6.9,0-12.5,5.6-12.5,12.5s5.6,12.5,12.5,12.5c6.9,0,12.5-5.6,12.5-12.5
			C48.8,29.5,43.3,23.9,36.4,23.9L36.4,23.9z"/>
		<path class="st0" d="M13.2,26.5C5.9,26.5,0,20.6,0,13.2S5.9,0,13.2,0s13.2,5.9,13.2,13.2c0,0,0,0,0,0
			C26.5,20.5,20.5,26.5,13.2,26.5z M13.2,2C7,2,2,7,2,13.2s5,11.2,11.2,11.2c6.2,0,11.2-5,11.2-11.2c0,0,0,0,0,0
			C24.5,7,19.4,2,13.2,2z"/>
		<path class="st0" d="M59.5,26.5c-7.3,0-13.2-5.9-13.2-13.2S52.2,0,59.5,0s13.2,5.9,13.2,13.2c0,0,0,0,0,0
			C72.7,20.5,66.8,26.5,59.5,26.5z M59.5,2c-6.2,0-11.2,5-11.2,11.2s5,11.2,11.2,11.2s11.2-5,11.2-11.2C70.7,7,65.7,2,59.5,2z"/>
		<path class="st0" d="M13.2,72.8C5.9,72.8,0,66.9,0,59.6s5.9-13.2,13.2-13.2s13.2,5.9,13.2,13.2c0,0,0,0,0,0
			C26.5,66.8,20.5,72.8,13.2,72.8z M13.2,48.3C7,48.3,2,53.3,2,59.5s5,11.2,11.2,11.2c6.2,0,11.2-5,11.2-11.2c0,0,0,0,0,0
			C24.5,53.3,19.4,48.3,13.2,48.3z"/>
		<path class="st0" d="M59.5,72.8c-7.3,0-13.2-5.9-13.2-13.2s5.9-13.2,13.2-13.2s13.2,5.9,13.2,13.2C72.7,66.8,66.8,72.8,59.5,72.8z
			 M59.5,48.3c-6.2,0-11.2,5-11.2,11.2s5,11.2,11.2,11.2c6.2,0,11.2-5,11.2-11.2c0,0,0,0,0,0C70.7,53.3,65.7,48.3,59.5,48.3z"/>
		<path class="st0" d="M36.4,58.9c-0.6,0-1-0.4-1-1v-8c0-0.6,0.4-1,1-1s1,0.4,1,1v8C37.4,58.5,36.9,58.9,36.4,58.9z"/>
		<path class="st0" d="M36.4,23.9c-0.6,0-1-0.4-1-1v-8.1c0-0.6,0.4-1,1-1s1,0.4,1,1v8.1C37.4,23.5,36.9,23.9,36.4,23.9z"/>
		<path class="st0" d="M26.9,27.9c-0.3,0-0.5-0.1-0.7-0.3l-5-5c-0.4-0.4-0.4-1,0-1.4s1-0.4,1.4,0l5,5c0.4,0.4,0.4,1,0,1.4
			c0,0,0,0,0,0C27.4,27.8,27.1,27.9,26.9,27.9z"/>
		<path class="st0" d="M50.9,51.9c-0.3,0-0.5-0.1-0.7-0.3l-4.9-4.9c-0.4-0.4-0.4-1,0-1.4s1-0.4,1.4,0l4.9,4.9c0.4,0.4,0.4,1,0,1.4
			c0,0,0,0,0,0C51.4,51.8,51.1,51.9,50.9,51.9z"/>
		<path class="st0" d="M57.9,37.4h-8.1c-0.6,0-1-0.4-1-1s0.4-1,1-1h8.1c0.6,0,1,0.4,1,1S58.5,37.4,57.9,37.4z"/>
		<path class="st0" d="M22.9,37.4h-8.1c-0.6,0-1-0.4-1-1s0.4-1,1-1h8.1c0.6,0,1,0.4,1,1S23.4,37.4,22.9,37.4z"/>
		<path class="st0" d="M45.9,27.9c-0.3,0-0.5-0.1-0.7-0.3c-0.4-0.4-0.4-1,0-1.4c0,0,0,0,0,0l5-5c0.4-0.4,1-0.4,1.4,0
			c0.4,0.4,0.4,1,0,1.4l0,0l-5,5C46.4,27.8,46.1,27.9,45.9,27.9z"/>
		<path class="st0" d="M21.9,51.9c-0.3,0-0.5-0.1-0.7-0.3c-0.4-0.4-0.4-1,0-1.4c0,0,0,0,0,0l4.9-4.9c0.4-0.4,1-0.4,1.4,0
			c0.4,0.4,0.4,1,0,1.4l0,0l-4.9,4.9C22.4,51.8,22.1,51.9,21.9,51.9z"/>
		<path class="st0" d="M10.8,41.4c-2.8,0-5-2.2-5-5s2.2-5,5-5s5,2.2,5,5S13.6,41.4,10.8,41.4z M10.8,33.4c-1.7,0-3,1.3-3,3
			s1.3,3,3,3s3-1.3,3-3C13.8,34.7,12.5,33.4,10.8,33.4C10.8,33.4,10.8,33.4,10.8,33.4L10.8,33.4z"/>
		<path class="st0" d="M61.9,41.4c-2.8,0-5-2.2-5-5s2.2-5,5-5c2.8,0,5,2.2,5,5S64.7,41.4,61.9,41.4z M61.9,33.4c-1.7,0-3,1.3-3,3
			s1.3,3,3,3s3-1.3,3-3C64.9,34.7,63.6,33.4,61.9,33.4C61.9,33.4,61.9,33.4,61.9,33.4L61.9,33.4z"/>
		<path class="st0" d="M36.4,15.8c-2.8,0-5-2.2-5-5s2.2-5,5-5s5,2.2,5,5S39.2,15.8,36.4,15.8z M36.4,7.8c-1.7,0-3,1.3-3,3s1.3,3,3,3
			s3-1.3,3-3C39.4,9.2,38.1,7.8,36.4,7.8C36.4,7.8,36.4,7.8,36.4,7.8L36.4,7.8z"/>
		<path class="st0" d="M36.4,66.9c-2.8,0-5-2.2-5-5c0-2.8,2.2-5,5-5s5,2.2,5,5C41.4,64.7,39.2,66.9,36.4,66.9z M36.4,58.9
			c-1.7,0-3,1.3-3,3s1.3,3,3,3s3-1.3,3-3C39.4,60.3,38.1,58.9,36.4,58.9C36.4,58.9,36.4,58.9,36.4,58.9L36.4,58.9z"/>
		<path class="st0" d="M13.8,21.2c-0.2,0-0.4-0.1-0.5-0.1c-0.5-0.3-0.6-0.9-0.3-1.4l3.2-5.4H8.6c-0.4,0-0.7-0.2-0.9-0.6
			c-0.1-0.3-0.1-0.7,0.1-1L13,5.8c0.3-0.4,1-0.5,1.4-0.2c0.4,0.3,0.5,1,0.2,1.4l-4,5.3h7.2c0.4,0,0.7,0.2,0.9,0.5
			c0.2,0.3,0.2,0.7,0,1l-4,6.9C14.5,21,14.2,21.2,13.8,21.2z"/>
		<path class="st0" d="M63.3,59.3H51c-0.6,0-1-0.4-1-1s0.4-1,1-1h12.3c0.7,0,1.2-0.6,1.2-1.2v0v-0.4c0-0.7-0.6-1.2-1.2-1.2h-3.1
			c-0.6,0-1-0.4-1-1s0.4-1,1-1h3.1c1.8,0,3.2,1.4,3.2,3.2c0,0,0,0,0,0v0.4C66.6,57.9,65.1,59.3,63.3,59.3
			C63.3,59.3,63.3,59.3,63.3,59.3z"/>
		<path class="st0" d="M59.7,67.4h-9.9c-0.6,0-1-0.4-1-1s0.4-1,1-1h9.9c0.7,0.1,1.3-0.4,1.3-1.1c0.1-0.7-0.4-1.3-1.1-1.3
			c-0.1,0-0.1,0-0.2,0h-3.9c-0.6,0-1-0.4-1-1s0.4-1,1-1h3.9c1.8-0.1,3.3,1.3,3.4,3c0.1,1.8-1.3,3.3-3,3.4
			C59.9,67.4,59.8,67.4,59.7,67.4z"/>
		<path class="st0" d="M59.5,20.1c-3,0-5.5-2.4-5.5-5.4c0,0,0,0,0,0c0-2.7,3.9-7.9,4.7-8.9c0.2-0.2,0.5-0.4,0.8-0.4l0,0
			c0.3,0,0.6,0.1,0.8,0.4c0.8,1,4.7,6.2,4.7,8.9C65,17.7,62.5,20.1,59.5,20.1C59.5,20.1,59.5,20.1,59.5,20.1z M59.5,8.1
			c-1.6,2.2-3.5,5.3-3.5,6.6c0.1,1.9,1.7,3.4,3.6,3.3c1.8-0.1,3.2-1.5,3.3-3.3C63,13.4,61.1,10.3,59.5,8.1z"/>
		<path class="st0" d="M12.3,63.6c-1.1,0.1-2.2-0.2-3.1-0.7c-0.7-0.7-1.4-5.5,1.1-8s7.2-1.9,8-1c0.6,0.6,0.7,2.5,0.7,3.4
			c0,1.7-0.6,3.4-1.8,4.6C15.9,63,14.1,63.7,12.3,63.6z M10.8,61.4c0.9,0.2,3.6,0.4,5.1-1s1.2-4.2,1-5.1c-0.9-0.2-3.7-0.4-5.1,1
			S10.6,60.5,10.8,61.4z M17.1,55.3L17.1,55.3z"/>
		<path class="st0" d="M7.6,65.5c-0.3,0-0.5-0.1-0.7-0.3c-0.4-0.4-0.4-1,0-1.4l5.2-5.2c0.4-0.4,1-0.4,1.4,0s0.4,1,0,1.4l0,0
			l-5.2,5.2C8.1,65.4,7.9,65.5,7.6,65.5z"/>
		<path class="st0" d="M36.2,39.2c-2.7,0-4.9-2.2-4.9-4.9c0-2.7,2.2-4.9,4.9-4.9c2.7,0,4.9,2.2,4.9,4.9S38.9,39.2,36.2,39.2
			L36.2,39.2z M36.2,31.5c-1.6,0-2.9,1.3-2.9,2.9c0,1.6,1.3,2.9,2.9,2.9c1.6,0,2.9-1.3,2.9-2.9l0,0C39.1,32.7,37.8,31.5,36.2,31.5
			C36.2,31.5,36.2,31.5,36.2,31.5z"/>
		<path class="st0" d="M26.5,46.7c-0.1,0-0.2,0-0.3,0c-0.5-0.2-0.8-0.7-0.7-1.2c1.7-6,7.9-9.4,13.8-7.8c3.8,1.1,6.7,4,7.8,7.8
			c0.1,0.5-0.2,1.1-0.8,1.2c-0.5,0.1-1-0.2-1.1-0.6c-1.4-4.9-6.5-7.7-11.4-6.4c-3.1,0.9-5.5,3.3-6.4,6.4
			C27.4,46.4,27,46.7,26.5,46.7z"/>
		<path class="st0" d="M57.3,54.5h-1.2c-0.6,0-1-0.4-1-1s0.4-1,1-1h1.2c0.6,0,1,0.4,1,1S57.8,54.5,57.3,54.5z"/>
	</g>
</g>
</svg>
