<?xml version="1.0" encoding="utf-8"?>
<!-- Generator: Adobe Illustrator 22.0.1, SVG Export Plug-In . SVG Version: 6.00 Build 0)  -->
<svg version="1.1" id="레이어_1" xmlns="http://www.w3.org/2000/svg" xmlns:xlink="http://www.w3.org/1999/xlink" x="0px"
	 y="0px" viewBox="0 0 69.8 66.1" style="enable-background:new 0 0 69.8 66.1;" xml:space="preserve">
<style type="text/css">
	.st0{fill:#64A371;}
</style>
<g id="Layer_2">
	<g id="Layer_1-2">
		<path class="st0" d="M68.8,66.1H1.1c-0.6,0-1-0.4-1-1V55c0-0.6,0.4-1,1-1h67.7c0.6,0,1,0.4,1,1v10.1
			C69.8,65.7,69.3,66.1,68.8,66.1z M2.1,64.1h65.7V56H2.1L2.1,64.1z"/>
		<path class="st0" d="M13.2,51.6c-1,0-2.7-0.2-3.3-0.8s-0.7-2.7-0.7-3.5c0-1.8,0.6-3.6,1.8-4.9c1.3-1.2,3.1-1.9,4.9-1.8
			c1,0,2.9,0.1,3.6,0.7c0.9,0.9,1.5,5.9-1.1,8.5c-1.3,1.2-3.1,1.9-4.9,1.9L13.2,51.6z M11.5,49.4c0.9,0.3,3.9,0.5,5.5-1.1
			s1.4-4.6,1.1-5.6c-0.9-0.3-4-0.5-5.6,1.1l0,0C11,45.4,11.3,48.5,11.5,49.4z M11.8,43.1L11.8,43.1z"/>
		<path class="st0" d="M10.7,51.1c-0.6,0-1-0.5-1-1c0-0.3,0.1-0.5,0.3-0.7l3-3c0.4-0.4,1-0.4,1.4,0c0,0,0,0,0,0c0.4,0.4,0.4,1,0,1.4
			l-3,3C11.2,51,11,51.1,10.7,51.1z"/>
		<path class="st0" d="M7.1,47.7H6.7c-1.8,0-3.5-0.7-4.8-1.9c-2.6-2.6-2-7.6-1.1-8.5s5.9-1.5,8.4,1.1s1.8,7.7,1.1,8.5
			S8.1,47.7,7.1,47.7z M2.2,38.8c-0.3,0.9-0.5,4,1.1,5.6s4.6,1.4,5.5,1.1c0.2-1,0.5-4-1-5.6S3.1,38.5,2.2,38.8z"/>
		<path class="st0" d="M9.6,56c-0.6,0-1-0.4-1-1v-8.4l-2.7-2.7c-0.4-0.4-0.4-1,0-1.4c0.4-0.4,1-0.4,1.4,0l3,3
			c0.2,0.2,0.3,0.4,0.3,0.7V55C10.6,55.5,10.1,56,9.6,56z"/>
		<path class="st0" d="M38,51.6c-1,0-2.7-0.2-3.3-0.8s-0.7-2.7-0.7-3.5c0-1.8,0.6-3.6,1.8-4.9l0,0c2.6-2.6,7.6-2,8.5-1.1
			c0.7,0.7,0.8,2.6,0.7,3.6c0,1.8-0.6,3.5-1.8,4.9c-1.3,1.2-3.1,1.9-4.9,1.9L38,51.6z M36.3,49.6L36.3,49.6z M36.2,49.4
			c0.9,0.3,3.9,0.5,5.5-1.1s1.3-4.6,1.1-5.6c-0.9-0.3-4-0.5-5.6,1.1S36,48.5,36.2,49.4L36.2,49.4z"/>
		<path class="st0" d="M35.5,51.1c-0.3,0-0.5-0.1-0.7-0.3c-0.4-0.4-0.4-1,0-1.4c0,0,0,0,0,0l3-3c0.4-0.4,1.1-0.3,1.4,0.1
			c0.3,0.4,0.3,0.9,0,1.3l-3,3C36,51,35.7,51.1,35.5,51.1z"/>
		<path class="st0" d="M31.9,47.7c-1.9,0.1-3.8-0.6-5.2-1.9c-1.2-1.3-1.9-3.1-1.8-4.9c0-1,0.1-2.9,0.7-3.6c0.9-0.9,5.9-1.5,8.5,1.1
			l0,0c2.6,2.6,1.8,7.7,1.1,8.5C34.1,47.5,33,47.8,31.9,47.7z M27,38.8c-0.3,0.9-0.5,4,1.1,5.6s4.6,1.4,5.5,1.1c0.2-1,0.5-4-1-5.6
			S27.9,38.5,27,38.8z"/>
		<path class="st0" d="M34.4,56c-0.6,0-1-0.4-1-1v-8.4l-2.7-2.7c-0.4-0.4-0.4-1,0-1.4c0,0,0,0,0,0c0.4-0.4,1-0.4,1.4,0l3,3
			c0.2,0.2,0.3,0.4,0.3,0.7V55C35.3,55.5,34.9,56,34.4,56z"/>
		<path class="st0" d="M62,51.6c-1.1,0.1-2.3-0.2-3.2-0.8c-0.7-0.7-1.5-5.8,1.1-8.5l0,0c1.3-1.2,3.1-1.9,4.9-1.8
			c1,0,2.9,0.1,3.6,0.7c0.9,0.9,1.5,5.9-1.1,8.5C65.8,51,63.9,51.7,62,51.6z M60.3,49.6L60.3,49.6z M60.3,49.4
			c0.9,0.3,3.9,0.5,5.5-1.1s1.3-4.6,1.1-5.6c-0.9-0.3-4-0.5-5.6,1.1S60.1,48.5,60.3,49.4L60.3,49.4z"/>
		<path class="st0" d="M59.5,51.1c-0.3,0-0.5-0.1-0.7-0.3c-0.4-0.4-0.4-1,0-1.4c0,0,0,0,0,0l3-3c0.4-0.4,1.1-0.3,1.4,0.1
			c0.3,0.4,0.3,0.9,0,1.3l-3,3C60,51,59.8,51.1,59.5,51.1z"/>
		<path class="st0" d="M55.9,47.7h-0.3c-1.8,0-3.5-0.7-4.8-1.9c-1.2-1.3-1.9-3.1-1.8-4.9c0-1,0.1-2.9,0.7-3.6
			c0.9-0.9,5.9-1.5,8.5,1.1l0,0c2.6,2.6,1.8,7.7,1.1,8.5S56.9,47.7,55.9,47.7z M51,38.8c-0.3,0.9-0.5,4,1.1,5.6s4.6,1.4,5.5,1.1
			c0.2-1,0.5-4-1-5.6S52,38.5,51,38.8z"/>
		<path class="st0" d="M58.4,56c-0.6,0-1-0.4-1-1v-8.4l-2.7-2.7c-0.4-0.4-0.4-1,0-1.4c0,0,0,0,0,0c0.4-0.4,1-0.4,1.4,0l3,3
			c0.2,0.2,0.3,0.4,0.3,0.7V55C59.4,55.5,59,56,58.4,56z"/>
		<path class="st0" d="M22.4,28.2c-0.6,0-1-0.4-1-1v-5.3c0-1.9,1.6-3.5,3.5-3.5h2c0.6,0,1,0.4,1,1s-0.4,1-1,1h-2
			c-0.8,0-1.5,0.7-1.5,1.5v5.3C23.4,27.7,23,28.2,22.4,28.2z"/>
		<path class="st0" d="M17.5,22.7c-0.6,0-1-0.4-1-1V18c0-1.9,1.5-3.5,3.5-3.5c0,0,0,0,0,0h4c0.6,0,1,0.4,1,1c0,0.6-0.4,1-1,1h-4
			c-0.8,0-1.5,0.7-1.5,1.5c0,0,0,0,0,0v3.8C18.5,22.3,18.1,22.7,17.5,22.7z"/>
		<path class="st0" d="M17.4,32c-0.6,0-1-0.4-1-1v-3.9c0-0.6,0.4-1,1-1s1,0.4,1,1V31C18.4,31.6,18,32,17.4,32z"/>
		<path class="st0" d="M47.5,24.8c-0.6,0-1.1-0.1-1.7-0.4c-1.1-0.5-1.8-1.4-2.1-2.5L40.4,9.5c-0.5-1.8,0.4-3.8,2.1-4.6l9.9-4.6
			c1.7-0.8,3.8-0.2,4.9,1.3l7.3,10.5c1.2,1.8,0.7,4.3-1.2,5.5c-0.1,0.1-0.3,0.2-0.4,0.2l0,0l-13.8,6.4C48.6,24.7,48,24.8,47.5,24.8z
			 M54,2c-0.3,0-0.6,0.1-0.8,0.2l-9.8,4.6c-0.9,0.4-1.3,1.4-1,2.3l3.3,12.4c0.3,1,1.3,1.6,2.3,1.4c0.1,0,0.2-0.1,0.3-0.1l13.8-6.4
			c1-0.4,1.4-1.6,0.9-2.6c0-0.1-0.1-0.2-0.2-0.3L55.6,2.8C55.2,2.3,54.6,2,54,2z M62.5,17.1L62.5,17.1z"/>
		<path class="st0" d="M42.2,13.5c-0.4,0-0.7-0.2-0.9-0.6c-0.2-0.5,0-1.1,0.5-1.3l16.2-7.5c0.5-0.2,1.1,0,1.3,0.5
			c0.2,0.5,0,1.1-0.5,1.3l0,0l-16.2,7.5C42.5,13.5,42.3,13.5,42.2,13.5z"/>
		<path class="st0" d="M63.5,12.5c-0.3,0-0.6-0.1-0.8-0.3c-0.4-0.4-0.3-1,0.1-1.4c1.5-1.3,2-3.5,1.2-5.3c-1.1-2.3-3.7-3.2-6-2.2
			c-0.2,0.1-0.4,0.2-0.6,0.3c-0.5,0.3-1.1,0.2-1.4-0.2s-0.2-1.1,0.2-1.4l0,0c0.3-0.2,0.6-0.4,0.9-0.5c3.3-1.5,7.2-0.1,8.7,3.2
			c0,0,0,0,0,0c1.2,2.6,0.6,5.7-1.6,7.6C64,12.4,63.8,12.5,63.5,12.5z"/>
		<path class="st0" d="M35.8,20.3c-0.6,0-1-0.4-1-1v-5c0-0.6,0.4-1,1-1l6.9-0.1c0.6,0,1,0.4,1,1s-0.4,1-1,1l-5.9,0.1v3l5.9,0V18
			c0-0.6,0.4-1,1-1s1,0.4,1,1v1.3c0,0.6-0.4,1-1,1L35.8,20.3L35.8,20.3z"/>
		<path class="st0" d="M31.9,22.2c-0.3,0-0.6-0.1-0.9-0.3c-0.5-0.3-0.8-0.9-0.8-1.5l-0.1-7.2c0-0.6,0.3-1.2,0.8-1.5
			c0.5-0.3,1.1-0.4,1.7-0.1l3.5,1.7c0.3,0.2,0.6,0.5,0.6,0.9v5c0,0.4-0.2,0.7-0.5,0.9L32.7,22C32.5,22.1,32.2,22.2,31.9,22.2z
			 M32.2,13.6l0.1,6.4l2.6-1.3v-3.8L32.2,13.6z"/>
	</g>
</g>
</svg>
