<?xml version="1.0" encoding="utf-8"?>
<!-- Generator: Adobe Illustrator 22.0.1, SVG Export Plug-In . SVG Version: 6.00 Build 0)  -->
<svg version="1.1" id="레이어_1" xmlns="http://www.w3.org/2000/svg" xmlns:xlink="http://www.w3.org/1999/xlink" x="0px"
	 y="0px" viewBox="0 0 71.5 70.8" style="enable-background:new 0 0 71.5 70.8;" xml:space="preserve">
<style type="text/css">
	.st0{fill:#9A8FB7;}
</style>
<g id="Layer_2">
	<g id="Layer_1-2">
		<path class="st0" d="M44.2,12.7H27.4c-0.6,0-1-0.4-1-1V1c0-0.6,0.4-1,1-1h16.8c0.6,0,1,0.4,1,1v10.7
			C45.2,12.3,44.7,12.7,44.2,12.7z M28.4,10.7h14.8V2H28.4L28.4,10.7z"/>
		<path class="st0" d="M47,35.4H24.4c-0.6,0-1-0.4-1-1V20c0-0.6,0.4-1,1-1H47c0.6,0,1,0.4,1,1v14.4C48,35,47.6,35.4,47,35.4z
			 M25.5,33.4H46V21H25.4L25.5,33.4z"/>
		<path class="st0" d="M41,54.1H30.4c-0.3,0-0.5-0.1-0.7-0.3l-6-5.9c-0.2-0.2-0.3-0.4-0.3-0.7v-5.9c0-0.6,0.4-1,1-1H47
			c0.6,0,1,0.4,1,1v5.9c0,0.3-0.1,0.5-0.3,0.7l-6,5.9C41.5,54,41.3,54.1,41,54.1z M30.9,52.1h9.7l5.4-5.4v-4.5H25.4v4.5L30.9,52.1z"
			/>
		<path class="st0" d="M41.4,42.2c-0.6,0-1-0.4-1-1v-5.3h-9.2v5.3c0,0.6-0.4,1-1,1s-1-0.4-1-1v-6.3c0-0.6,0.4-1,1-1h11.2
			c0.6,0,1,0.4,1,1v6.3C42.4,41.8,41.9,42.2,41.4,42.2z"/>
		<path class="st0" d="M40,35.4c-0.6,0-1-0.4-1-1v-5.3h-6.4v5.3c0,0.6-0.4,1-1,1s-1-0.4-1-1v-6.3c0-0.6,0.4-1,1-1H40
			c0.6,0,1,0.4,1,1v6.3C41,35,40.6,35.4,40,35.4z"/>
		<path class="st0" d="M30.2,59c-0.6,0-1-0.4-1-1v-5.1c0-0.6,0.4-1,1-1s1,0.4,1,1V58C31.2,58.6,30.7,59,30.2,59z"/>
		<path class="st0" d="M41.4,59c-0.6,0-1-0.4-1-1v-5.3c0-0.6,0.4-1,1-1s1,0.4,1,1V58C42.4,58.6,41.9,59,41.4,59z"/>
		<path class="st0" d="M41.4,65.2H30.2c-0.6,0-1-0.4-1-1s0.4-1,1-1h11.2c0.6,0,1,0.4,1,1S41.9,65.2,41.4,65.2z"/>
		<path class="st0" d="M47,65.2H24.4c-0.6,0-1-0.4-1-1V58c0-0.6,0.4-1,1-1H47c0.6,0,1,0.4,1,1v6.3C48,64.8,47.5,65.2,47,65.2z
			 M25.5,63.2H46V59H25.4L25.5,63.2z"/>
		<path class="st0" d="M55.4,25.7H47c-0.6,0-1-0.4-1-1s0.4-1,1-1h7.4v-6.4H48V20c0,0.6-0.4,1-1,1s-1-0.4-1-1v-3.7c0-0.6,0.4-1,1-1
			h8.4c0.6,0,1,0.4,1,1v8.4C56.4,25.3,56,25.7,55.4,25.7C55.4,25.7,55.4,25.7,55.4,25.7z"/>
		<path class="st0" d="M24.4,25.7H16c-0.6,0-1-0.4-1-1v-8.4c0-0.6,0.4-1,1-1h8.4c0.6,0,1,0.4,1,1V20c0,0.6-0.4,1-1,1s-1-0.4-1-1
			v-2.7H17v6.4h7.4c0.6,0,1,0.4,1,1S25,25.7,24.4,25.7L24.4,25.7z"/>
		<path class="st0" d="M19.1,70.8h-8.6c-0.6,0-1-0.4-1-1v-17c0-0.6,0.4-1,1-1h8.6c0.6,0,1,0.4,1,1v17C20.1,70.3,19.7,70.8,19.1,70.8
			z M11.5,68.8h6.6v-15h-6.6V68.8z"/>
		<path class="st0" d="M19.1,59.5h-8.6c-0.6,0-1-0.4-1-1s0.4-1,1-1h8.6c0.6,0,1,0.4,1,1S19.7,59.5,19.1,59.5z"/>
		<path class="st0" d="M19.1,65.2h-8.6c-0.6,0-1-0.4-1-1s0.4-1,1-1h8.6c0.6,0,1,0.4,1,1S19.7,65.2,19.1,65.2z"/>
		<path class="st0" d="M61,70.8h-8.6c-0.6,0-1-0.4-1-1v-17c0-0.6,0.4-1,1-1H61c0.6,0,1,0.4,1,1v17C62,70.3,61.6,70.8,61,70.8z
			 M53.4,68.8H60v-15h-6.6L53.4,68.8z"/>
		<path class="st0" d="M61,59.5h-8.6c-0.6,0-1-0.4-1-1s0.4-1,1-1H61c0.6,0,1,0.4,1,1S61.6,59.5,61,59.5z"/>
		<path class="st0" d="M61,65.2h-8.6c-0.6,0-1-0.4-1-1s0.4-1,1-1H61c0.6,0,1,0.4,1,1S61.6,65.2,61,65.2z"/>
		<path class="st0" d="M24.4,62.3h-5.3c-0.6,0-1-0.4-1-1s0.4-1,1-1h5.3c0.6,0,1,0.4,1,1S25,62.3,24.4,62.3z"/>
		<path class="st0" d="M52,62.3h-5c-0.6,0-1-0.4-1-1s0.4-1,1-1h5c0.6,0,1,0.4,1,1S52.6,62.3,52,62.3z"/>
		<path class="st0" d="M38.6,21H33c-0.6,0-1-0.4-1-1v-8.3c0-0.6,0.4-1,1-1h5.6c0.6,0,1,0.4,1,1V20C39.6,20.6,39.1,21,38.6,21
			C38.6,21,38.6,21,38.6,21z M34,19h3.6v-6.3H34V19z"/>
		<path class="st0" d="M27.4,7.5L27.4,7.5c-1.2,0-2.6,0-2.8,0l-0.1-1h-0.1L23.5,6c0.3-0.6,0.3-0.6,3.9-0.5c0.6,0,1,0.4,1,1
			C28.4,7.1,28,7.5,27.4,7.5C27.4,7.5,27.4,7.5,27.4,7.5z M25.3,7L25.3,7z"/>
		<path class="st0" d="M47.1,7.5L47.1,7.5c-1.1,0-2.4,0-2.8,0h-0.1c-0.6,0-1-0.4-1.1-0.9c0-0.2,0-0.4,0.1-0.6
			c0.3-0.6,0.3-0.6,3.9-0.5c0.6,0,1,0.4,1,1C48.2,7,47.7,7.5,47.1,7.5C47.2,7.5,47.1,7.5,47.1,7.5z"/>
		<path class="st0" d="M4.2,37.2c-2.3,0-4.2-1.9-4.2-4.2s1.9-4.2,4.2-4.2c2.3,0,4.2,1.9,4.2,4.2c0,0,0,0,0,0
			C8.4,35.4,6.5,37.2,4.2,37.2z M4.2,30.9C3,30.8,2,31.8,2,33c0,1.2,1,2.2,2.2,2.2c1.2,0,2.2-1,2.2-2.2c0,0,0,0,0,0
			C6.4,31.8,5.4,30.9,4.2,30.9z"/>
		<path class="st0" d="M14.1,48.3c-3,0-5.5-2.4-5.5-5.5c0-3,2.4-5.5,5.5-5.5c3,0,5.5,2.4,5.5,5.5c0,0,0,0,0,0c0,0.6-0.4,1-1,1
			s-1-0.4-1-1c0-1.9-1.5-3.5-3.4-3.5c-1.9,0-3.5,1.5-3.5,3.4c0,1.9,1.5,3.5,3.4,3.5c0,0,0,0,0,0c0.6,0,1,0.4,1,1
			S14.6,48.3,14.1,48.3z"/>
		<path class="st0" d="M6.2,31.5c-0.6,0-1-0.5-1-1c0-0.3,0.1-0.5,0.3-0.7l9.8-9.8c0.4-0.4,1-0.4,1.4,0c0.4,0.4,0.4,1,0,1.4
			c0,0,0,0,0,0l-9.8,9.8C6.7,31.4,6.4,31.5,6.2,31.5z"/>
		<path class="st0" d="M10.6,41c-0.3,0-0.5-0.1-0.7-0.3l-4.5-4.5c-0.4-0.4-0.3-1.1,0.1-1.4c0.4-0.3,0.9-0.3,1.3,0l4.5,4.5
			c0.4,0.4,0.4,1,0,1.4C11.2,40.9,10.9,41,10.6,41z"/>
		<path class="st0" d="M67.3,37.2c-2.3,0-4.2-1.9-4.2-4.2c0-2.3,1.9-4.2,4.2-4.2c2.3,0,4.2,1.9,4.2,4.2c0,0,0,0,0,0
			C71.5,35.4,69.6,37.2,67.3,37.2z M67.3,30.9c-1.2,0-2.2,1-2.2,2.2c0,1.2,1,2.2,2.2,2.2c1.2,0,2.2-1,2.2-2.2c0,0,0,0,0,0
			C69.5,31.8,68.5,30.9,67.3,30.9z"/>
		<path class="st0" d="M57.4,48.3c-0.6,0-1-0.4-1-1s0.4-1,1-1c1.9,0,3.5-1.5,3.5-3.4c0-1.9-1.5-3.5-3.4-3.5c-1.9,0-3.5,1.5-3.5,3.4
			c0,0,0,0,0,0c0,0.6-0.4,1-1,1s-1-0.4-1-1c0-3,2.4-5.5,5.4-5.5c3,0,5.5,2.4,5.5,5.4C62.9,45.8,60.5,48.3,57.4,48.3
			C57.5,48.3,57.5,48.3,57.4,48.3L57.4,48.3z"/>
		<path class="st0" d="M65.3,31.5c-0.3,0-0.5-0.1-0.7-0.3l-9.8-9.8c-0.4-0.4-0.4-1,0-1.4s1-0.4,1.4,0l9.8,9.8c0.4,0.4,0.4,1,0,1.4
			c0,0,0,0,0,0C65.8,31.4,65.6,31.5,65.3,31.5z"/>
		<path class="st0" d="M60.8,41c-0.3,0-0.5-0.1-0.7-0.3c-0.4-0.4-0.4-1,0-1.4l4.5-4.5c0.4-0.4,1-0.4,1.4,0c0.4,0.4,0.4,1,0,1.4
			l-4.5,4.5C61.4,40.9,61.1,41,60.8,41z"/>
		<circle class="st0" cx="33" cy="6.4" r="1.3"/>
		<circle class="st0" cx="38.6" cy="6.4" r="1.3"/>
	</g>
</g>
</svg>
