<?xml version="1.0" encoding="utf-8"?>
<!-- Generator: Adobe Illustrator 22.0.1, SVG Export Plug-In . SVG Version: 6.00 Build 0)  -->
<svg version="1.1" id="레이어_1" xmlns="http://www.w3.org/2000/svg" xmlns:xlink="http://www.w3.org/1999/xlink" x="0px"
	 y="0px" viewBox="0 0 70.9 70.9" style="enable-background:new 0 0 70.9 70.9;" xml:space="preserve">
<style type="text/css">
	.st0{fill:#9A8FB7;}
</style>
<g id="Layer_2">
	<g id="Layer_1-2">
		<path class="st0" d="M59.1,70.9H11.7c-0.6,0-1-0.4-1-1V38.2c0-0.6,0.4-1,1-1h47.4c0.6,0,1,0.4,1,1v31.7
			C60.1,70.4,59.7,70.9,59.1,70.9z M12.7,68.9h45.4V39.2H12.7L12.7,68.9z"/>
		<path class="st0" d="M41.4,70.9c-0.6,0-1-0.4-1-1v-4.8h-10v4.8c0,0.6-0.4,1-1,1s-1-0.4-1-1v-5.8c0-0.6,0.4-1,1-1h12
			c0.6,0,1,0.4,1,1v5.8C42.4,70.4,42,70.9,41.4,70.9z"/>
		<path class="st0" d="M41.4,34.4h-12c-0.6,0-1-0.4-1-1v-2.7c0-2.2,1.8-4,4-4h6c2.2,0,4,1.8,4,4v2.8C42.4,34,42,34.4,41.4,34.4z
			 M30.4,32.4h10v-1.7c0-1.1-0.9-2-2-2h-6c-1.1,0-2,0.9-2,2V32.4z"/>
		<path class="st0" d="M41.4,48.5h-12c-0.6,0-1-0.4-1-1v-9.3c0-0.6,0.4-1,1-1s1,0.4,1,1v8.3h10v-8.3c0-0.6,0.4-1,1-1s1,0.4,1,1v9.3
			C42.4,48.1,42,48.5,41.4,48.5L41.4,48.5z"/>
		<path class="st0" d="M52.1,43.9c-0.6,0-1-0.4-1-1v-5.1c0-1.8-1.5-3.3-3.3-3.3H23.1c-1.8,0-3.3,1.5-3.3,3.3v5.1c0,0.6-0.4,1-1,1
			s-1-0.4-1-1v-5.1c0-2.9,2.4-5.3,5.3-5.3h0h24.7c2.9,0,5.3,2.4,5.3,5.3l0,0v5.1C53.1,43.4,52.7,43.9,52.1,43.9z"/>
		<path class="st0" d="M21.8,43.9h-6c-0.6,0-1-0.4-1-1s0.4-1,1-1h6c0.6,0,1,0.4,1,1S22.4,43.9,21.8,43.9z"/>
		<path class="st0" d="M55.1,43.9h-6c-0.6,0-1-0.4-1-1s0.4-1,1-1h6c0.6,0,1,0.4,1,1S55.7,43.9,55.1,43.9z"/>
		<path class="st0" d="M39.1,28.7h-7.2c-0.6,0-1-0.4-1-1v-4.1c0-0.6,0.4-1,1-1h7.2c0.6,0,1,0.4,1,1v4.1
			C40.1,28.2,39.6,28.7,39.1,28.7z M32.8,26.7h5.2v-2.1h-5.2V26.7z"/>
		<path class="st0" d="M17.8,7H1C0.4,7,0,6.6,0,6V5.3C0,2.4,2.4,0,5.3,0h8.2c2.9,0,5.3,2.4,5.3,5.3V6C18.8,6.6,18.4,7,17.8,7z M2,5
			h14.8c-0.2-1.7-1.6-3-3.3-3H5.3C3.6,2,2.2,3.3,2,5z"/>
		<path class="st0" d="M43.8,9.3c-0.6,0-1-0.4-1-1V2.4c0-0.6,0.4-1,1-1s1,0.4,1,1v5.9C44.8,8.9,44.4,9.3,43.8,9.3z"/>
		<path class="st0" d="M27,9.3c-0.6,0-1-0.4-1-1V2.4c0-0.6,0.4-1,1-1s1,0.4,1,1v5.9C28,8.9,27.6,9.3,27,9.3z"/>
		<path class="st0" d="M69.9,7H53.1c-0.6,0-1-0.4-1-1V5.3c0-2.9,2.4-5.3,5.3-5.3c0,0,0,0,0,0h8.2c2.9,0,5.3,2.4,5.3,5.3c0,0,0,0,0,0
			V6C70.9,6.6,70.5,7,69.9,7z M54.1,5h14.8c-0.2-1.7-1.6-3-3.3-3h-8.2C55.7,2,54.3,3.3,54.1,5z"/>
		<path class="st0" d="M9.4,12.7c-0.6,0-1-0.4-1-1V6c0-0.6,0.4-1,1-1s1,0.4,1,1v5.7C10.4,12.2,9.9,12.7,9.4,12.7z"/>
		<path class="st0" d="M61.5,12.7c-0.6,0-1-0.4-1-1V6c0-0.6,0.4-1,1-1s1,0.4,1,1v5.7C62.5,12.2,62.1,12.7,61.5,12.7z"/>
		<path class="st0" d="M46.2,24.6H25.6c-1.5,0-2.9-0.4-4.2-1.2l-7.5-4.5h-3.6c-2.2,0-4-1.8-4-4c0,0,0,0,0-0.1v-3.2c0-0.6,0.4-1,1-1
			h8.4l17.3-5c1.6-0.5,3.3-0.5,4.9,0l18.3,5.1h7.7c0.6,0,1,0.4,1,1c0,0,0,0,0,0v3.2c0,2.2-1.8,4-4,4h-3.2l-7.2,4.5
			C49.1,24.2,47.7,24.6,46.2,24.6z M8.3,12.7v2.2c0,1.1,0.9,2,2,2h3.8c0.2,0,0.4,0.1,0.5,0.1l7.7,4.7c0.9,0.6,2,0.9,3.1,0.9h20.7
			c1.1,0,2.2-0.3,3.2-0.9l7.5-4.6c0.2-0.1,0.3-0.2,0.5-0.1h3.4c1.1,0,2-0.9,2-2.1v-2.2H56c-0.1,0-0.2,0-0.3,0L37.4,7.5
			c-1.3-0.4-2.6-0.4-3.8,0l-17.5,5.1c-0.1,0-0.2,0-0.3,0L8.3,12.7z"/>
		<path class="st0" d="M42.4,15.4H28.6c-3.3,0-6-2.7-6-6c0-0.6,0.4-1,1-1s1,0.4,1,1c0,2.2,1.8,4,4,4h13.9c2.2,0,4-1.8,4-4
			c0-0.6,0.4-1,1-1s1,0.4,1,1C48.4,12.7,45.7,15.4,42.4,15.4z"/>
		<path class="st0" d="M47.4,20H23.6c-0.6,0-1-0.4-1-1s0.4-1,1-1h23.8c0.6,0,1,0.4,1,1S47.9,20,47.4,20z"/>
	</g>
</g>
</svg>
