<?xml version="1.0" encoding="utf-8"?>
<!-- Generator: Adobe Illustrator 22.0.1, SVG Export Plug-In . SVG Version: 6.00 Build 0)  -->
<svg version="1.1" id="레이어_1" xmlns="http://www.w3.org/2000/svg" xmlns:xlink="http://www.w3.org/1999/xlink" x="0px"
	 y="0px" viewBox="0 0 74 56.2" style="enable-background:new 0 0 74 56.2;" xml:space="preserve">
<style type="text/css">
	.st0{fill:#67919B;}
</style>
<g id="Layer_2">
	<g id="Layer_1-2">
		<path class="st0" d="M12.5,56.2c-4,0-7.2-3.2-7.2-7.2s3.2-7.2,7.2-7.2c4,0,7.2,3.2,7.2,7.2c0,0,0,0,0,0
			C19.7,53,16.5,56.2,12.5,56.2z M12.5,43.9c-2.9,0-5.2,2.3-5.2,5.2c0,2.9,2.3,5.2,5.2,5.2c2.9,0,5.2-2.3,5.2-5.2c0,0,0,0,0,0
			C17.7,46.2,15.4,43.9,12.5,43.9z"/>
		<path class="st0" d="M61.9,56.2c-4,0-7.2-3.2-7.2-7.2s3.2-7.2,7.2-7.2s7.2,3.2,7.2,7.2S65.9,56.2,61.9,56.2L61.9,56.2z M61.9,43.9
			c-2.9,0-5.2,2.3-5.2,5.2c0,2.9,2.3,5.2,5.2,5.2c2.9,0,5.2-2.3,5.2-5.2c0,0,0,0,0,0C67.1,46.2,64.8,43.9,61.9,43.9z"/>
		<path class="st0" d="M4.9,34c-0.6,0-1-0.4-1-1v-8.8c0-0.2,0-0.3,0.1-0.5l4.3-7.9c0.7-1.4,2.2-2.2,3.7-2.2h28.4
			c1.1,0,2.1,0.4,2.8,1.1l15.5,14.1c0.4,0.4,0.4,1,0.1,1.4c-0.4,0.4-1,0.4-1.4,0.1L41.9,16.2c-0.4-0.4-1-0.6-1.5-0.6H12
			c-0.8,0-1.6,0.4-2,1.2l-4.1,7.6V33C5.9,33.6,5.4,34,4.9,34z"/>
		<path class="st0" d="M6.3,50.1H3.7c-2,0-3.7-1.7-3.7-3.7c0,0,0,0,0,0v-8.3c0-1.2,0.5-2.3,1.3-3.1l2.9-2.8c0.4-0.4,1-0.4,1.4,0
			c0.4,0.4,0.4,1,0,1.4c0,0,0,0,0,0l-2.9,2.8c-0.4,0.4-0.7,1-0.7,1.6v8.3c0,0.9,0.8,1.7,1.7,1.7h2.7c0.6,0,1,0.4,1,1
			S6.9,50.1,6.3,50.1z"/>
		<path class="st0" d="M70.3,50.1h-2.2c-0.6,0-1-0.4-1-1s0.4-1,1-1h2.2c0.9,0,1.7-0.7,1.7-1.7c0,0,0,0,0,0v-9.9l-3.7-4.9
			c-0.5-0.6-1.2-1-2-1H19.8c-0.6,0-1-0.4-1-1v-15c0-0.6,0.4-1,1-1s1,0.4,1,1v13.9h45.5c1.4,0,2.8,0.7,3.6,1.8l3.9,5.2
			c0.1,0.2,0.2,0.4,0.2,0.6v10.2C74,48.4,72.3,50.1,70.3,50.1C70.3,50.1,70.3,50.1,70.3,50.1z"/>
		<path class="st0" d="M55.8,50.1h-37c-0.6,0-1-0.4-1-1s0.4-1,1-1h37c0.6,0,1,0.4,1,1S56.3,50.1,55.8,50.1z"/>
		<path class="st0" d="M50.8,45.4H27.3c-0.4,0-0.7-0.2-0.9-0.5L18.9,30c-0.3-0.5-0.1-1.1,0.4-1.3c0,0,0,0,0,0
			c0.5-0.2,1.1-0.1,1.3,0.4L28,43.4h22.8c0.6,0,1,0.4,1,1S51.3,45.4,50.8,45.4z"/>
		<path class="st0" d="M50.8,45.4c-0.6,0-1-0.4-1-1V29.6c0-0.6,0.4-1,1-1s1,0.4,1,1v14.8C51.8,44.9,51.3,45.4,50.8,45.4z"/>
		<path class="st0" d="M73,38h-4.9c-3.6,0-6.6-3-6.6-6.6v-1.8c0-0.6,0.4-1,1-1s1,0.4,1,1v1.8c0,2.5,2.1,4.6,4.6,4.6H73
			c0.6,0,1,0.4,1,1S73.6,38,73,38L73,38z"/>
		<path class="st0" d="M7.5,34H4.9c-0.6,0-1-0.4-1-1v-7.3c0-0.6,0.4-1,1-1h2.6c2.4,0,4.4,2,4.4,4.4v0.5C11.9,32,9.9,34,7.5,34z
			 M5.9,32h1.6c1.3,0,2.4-1.1,2.4-2.4v-0.5c0-1.3-1.1-2.4-2.4-2.4H5.9V32z"/>
		<path class="st0" d="M32.3,15.6c-0.6,0-1-0.4-1-1V8.8c0-0.6,0.4-1,1-1s1,0.4,1,1v5.8C33.3,15.2,32.8,15.6,32.3,15.6z"/>
		<path class="st0" d="M32.3,9.5c-2.6,0-4.7-2.1-4.6-4.7c0-2.6,2.1-4.7,4.7-4.6c2.6,0,4.6,2.1,4.6,4.7C37,7.5,34.9,9.5,32.3,9.5
			C32.3,9.5,32.3,9.5,32.3,9.5z M32.3,2.2c-1.5,0-2.7,1.2-2.6,2.7c0,1.5,1.2,2.7,2.7,2.6c1.5,0,2.6-1.2,2.6-2.7
			C35,3.4,33.8,2.2,32.3,2.2C32.3,2.2,32.3,2.2,32.3,2.2z"/>
		<path class="st0" d="M60.8,19.5c-0.6,0-1-0.4-1-1c0-3.6-2.9-6.5-6.5-6.6c-0.6,0-1-0.4-1-1s0.4-1,1-1c4.7,0,8.5,3.8,8.5,8.6
			C61.8,19,61.4,19.5,60.8,19.5z"/>
		<path class="st0" d="M65.8,19.5c-0.6,0-1-0.4-1-1C64.7,12.1,59.6,7,53.3,7c-0.6,0-1-0.4-1-1s0.4-1,1-1c7.4,0,13.5,6.1,13.5,13.5
			C66.7,19,66.3,19.5,65.8,19.5z"/>
		<path class="st0" d="M70.7,19.5c-0.6,0-1-0.4-1-1C69.7,9.4,62.4,2,53.3,2c-0.6,0-1-0.4-1-1s0.4-1,1-1c10.2,0,18.4,8.3,18.5,18.5
			C71.7,19,71.3,19.5,70.7,19.5z"/>
		<path class="st0" d="M52.2,30.6c-2.2,0-4-1.8-4-4c0,0,0,0,0-0.1v-1c0-1.5,1.2-2.6,2.7-2.6l0,0h1c0.2,0,0.5,0.1,0.7,0.3l6.3,5.7
			c0.3,0.3,0.4,0.7,0.2,1.1c-0.1,0.4-0.5,0.6-0.9,0.6L52.2,30.6L52.2,30.6z M50.8,24.8c-0.4,0-0.7,0.3-0.7,0.6c0,0,0,0,0,0v1
			c0,0.5,0.2,1.1,0.6,1.5c0.4,0.4,0.9,0.6,1.5,0.6h3.3l-4.1-3.7L50.8,24.8z"/>
		<path class="st0" d="M32.7,34.5h-5.5c-0.6,0-1-0.4-1-1s0.4-1,1-1h5.5c0.6,0,1,0.4,1,1S33.2,34.5,32.7,34.5z"/>
		<path class="st0" d="M15.9,15.6c-0.3,0-0.5-0.1-0.7-0.3l-4.5-4.5c-0.4-0.4-0.4-1,0-1.4s1-0.4,1.4,0l4.5,4.5c0.4,0.4,0.4,1,0,1.4
			C16.4,15.5,16.2,15.6,15.9,15.6z"/>
		<circle class="st0" cx="12.5" cy="49.1" r="1.2"/>
		<circle class="st0" cx="61.9" cy="49.1" r="1.2"/>
		<circle class="st0" cx="53.6" cy="17.6" r="1.2"/>
	</g>
</g>
</svg>
