<?xml version="1.0" encoding="utf-8"?>
<!-- Generator: Adobe Illustrator 22.0.1, SVG Export Plug-In . SVG Version: 6.00 Build 0)  -->
<svg version="1.1" id="레이어_1" xmlns="http://www.w3.org/2000/svg" xmlns:xlink="http://www.w3.org/1999/xlink" x="0px"
	 y="0px" viewBox="0 0 64.6 74.9" style="enable-background:new 0 0 64.6 74.9;" xml:space="preserve">
<style type="text/css">
	.st0{fill:#AF9B7E;}
</style>
<g id="Layer_2">
	<g id="Layer_1-2">
		<path class="st0" d="M17.4,47.8c-1.1,0.1-2.3-0.2-3.2-0.8c-0.7-0.7-1.5-5.8,1.1-8.5s7.6-2,8.5-1.1s1.5,5.9-1.1,8.4
			C21.2,47.2,19.3,47.8,17.4,47.8z M15.6,45.6c0.9,0.3,3.9,0.5,5.5-1.1s1.3-4.6,1.1-5.6c-1-0.3-4-0.5-5.6,1.1S15.4,44.6,15.6,45.6z"
			/>
		<path class="st0" d="M14.9,47.3c-0.3,0-0.5-0.1-0.7-0.3c-0.4-0.4-0.4-1,0-1.4c0,0,0,0,0,0l3-3c0.4-0.4,1-0.4,1.4,0
			c0.4,0.4,0.4,1,0,1.4l0,0l-3,3C15.4,47.2,15.1,47.3,14.9,47.3z"/>
		<path class="st0" d="M11.2,43.8C9.3,43.9,7.4,43.3,6,42c-1.2-1.3-1.9-3.1-1.8-4.9c0-1,0.1-2.9,0.7-3.6c0.9-0.9,5.9-1.5,8.5,1.1
			c1.2,1.4,1.8,3.1,1.8,4.9c0,0.8-0.1,2.9-0.7,3.5C13.5,43.7,12.4,43.9,11.2,43.8z M6.3,35c-0.3,0.9-0.5,4,1.1,5.6s4.6,1.3,5.6,1.1
			c0.2-1,0.5-4-1-5.6S7.3,34.7,6.3,35z"/>
		<path class="st0" d="M13.8,52.2c-0.6,0-1-0.4-1-1v-8.4L10,40c-0.4-0.4-0.4-1,0-1.4c0,0,0,0,0,0c0.4-0.4,1-0.4,1.4,0l3,3
			c0.2,0.2,0.3,0.4,0.3,0.7v8.8C14.7,51.7,14.3,52.1,13.8,52.2C13.8,52.2,13.8,52.2,13.8,52.2z"/>
		<path class="st0" d="M49.7,67.9c-1.3,0-5.2-3-5.2-6.8s4-6.8,5.2-6.8s5.2,3.1,5.2,6.8S50.7,67.9,49.7,67.9z M49.7,56.5
			c-0.9,0.5-3.2,2.5-3.2,4.7s2.3,4.2,3.2,4.7c0.8-0.5,3.2-2.5,3.2-4.7S50.6,57,49.7,56.5z"/>
		<path class="st0" d="M49.7,74.9c-0.6,0-1-0.4-1-1V62.7c0-0.6,0.4-1,1-1s1,0.4,1,1v11.2C50.7,74.4,50.3,74.9,49.7,74.9
			C49.7,74.9,49.7,74.9,49.7,74.9z"/>
		<path class="st0" d="M45.4,20.8c-2,0-3.7-0.5-4.3-1s-0.9-3.2-0.9-4.7c0-2,0.5-4.9,2.5-6.9l0,0c1.9-1.7,4.3-2.6,6.8-2.5
			c1.8-0.1,4.1,0.2,4.8,0.9c1,1,2,8-1.6,11.6C50.7,20,48.1,20.9,45.4,20.8z M42.6,18.4c0.9,0.4,6,1,8.7-1.6s2-7.6,1.6-8.7
			c-1.1-0.4-6.2-1-8.7,1.6l0,0C41.5,12.2,42.2,17.4,42.6,18.4z M43.4,8.9L43.4,8.9z"/>
		<path class="st0" d="M41.8,20.1c-0.3,0-0.5-0.1-0.7-0.3c-0.4-0.4-0.4-1,0-1.4l4.4-4.4c0.4-0.4,1.1-0.3,1.4,0.1
			c0.3,0.4,0.3,0.9,0,1.3l-4.4,4.4C42.3,20,42.1,20.1,41.8,20.1z"/>
		<path class="st0" d="M36.6,15.1c-2.7,0.1-5.3-0.8-7.3-2.6c-3.6-3.6-2.6-10.6-1.6-11.6s8-2,11.6,1.6s2.5,10.6,1.6,11.6
			C40.4,14.7,38.7,15.1,36.6,15.1z M29.1,2.4c-0.4,1.1-1,6.1,1.6,8.7s7.6,2.1,8.7,1.6c0.4-1.1,1-6.2-1.5-8.8S30.2,1.9,29.1,2.4z"/>
		<path class="st0" d="M40.2,27.2c-0.6,0-1-0.4-1-1V13.8l-4.1-4.1c-0.4-0.4-0.4-1,0-1.4c0,0,0,0,0,0c0.4-0.4,1-0.4,1.4,0l4.4,4.4
			c0.2,0.2,0.3,0.4,0.3,0.7v12.8C41.2,26.8,40.8,27.2,40.2,27.2L40.2,27.2z"/>
		<path class="st0" d="M32.2,74.8C16.4,74.9,2.9,63.4,0.4,47.8v-0.1C0.2,46,0,44.3,0,42.6C0.1,25.8,13,11.9,29.7,10.5
			c0.6,0,1,0.4,1.1,0.9c0,0,0,0,0,0c0,0.5-0.4,1-0.9,1.1C13.2,13.8,0.8,28.4,2.1,45c0.1,0.7,0.1,1.4,0.2,2.2v0.1
			C4.9,63.8,20.4,75,36.9,72.4c1.9-0.3,3.7-0.8,5.6-1.4c0.5-0.2,1.1,0.1,1.3,0.6c0.2,0.5-0.1,1-0.6,1.2
			C39.6,74.2,35.9,74.8,32.2,74.8z"/>
		<path class="st0" d="M61.7,53.8c-0.1,0-0.2,0-0.3,0c-0.5-0.2-0.8-0.7-0.6-1.3c4.2-12.2,0.2-25.7-10-33.7c-0.5-0.4-0.5-1-0.2-1.5
			c0.4-0.5,1-0.5,1.5-0.2l0,0c7.8,6.1,12.4,15.5,12.4,25.4c0,3.6-0.6,7.1-1.8,10.5C62.5,53.6,62.1,53.8,61.7,53.8z"/>
		<path class="st0" d="M41.5,13.9c-0.1,0-0.2,0-0.3,0c-0.3-0.1-0.6-0.2-0.9-0.3c-0.5-0.1-1-0.3-1.5-0.4c-0.5-0.1-0.9-0.7-0.7-1.2
			c0.1-0.5,0.6-0.8,1.2-0.7c0.5,0.1,1.1,0.2,1.6,0.4c0.3,0.1,0.7,0.2,1,0.3c0.5,0.2,0.8,0.7,0.6,1.3C42.3,13.6,41.9,13.9,41.5,13.9
			L41.5,13.9z"/>
		<path class="st0" d="M17.2,66.8h-5.6c-0.6,0-1-0.4-1-1s0.4-1,1-1h5.6c0.7,0,1.2-0.5,1.2-1.2l0,0v-0.8c0-0.7-0.5-1.2-1.2-1.2h-0.6
			c-1.8,0-3.2-1.4-3.2-3.2s1.4-3.2,3.2-3.2h2.5c1.9,0,3.4-1.5,3.4-3.4c0-1.9-1.5-3.4-3.4-3.4c0,0,0,0,0,0H1.4c-0.6,0-1-0.4-1-1
			s0.4-1,1-1h17.7c3,0,5.4,2.4,5.4,5.4s-2.4,5.4-5.4,5.4h-2.5c-0.7,0-1.2,0.5-1.2,1.2s0.5,1.2,1.2,1.2h0.6c1.8,0,3.2,1.4,3.2,3.2
			v0.8C20.4,65.4,19,66.8,17.2,66.8z"/>
		<path class="st0" d="M42.3,49.2c-0.4,0-0.8-0.3-0.9-0.7c-0.6-1.2-1.7-1.9-3-1.9h-3.3c-1.8,0-3.3-1.4-3.3-3.3c0,0,0,0,0,0
			c0-1.8,1.5-3.3,3.3-3.3h1.5c0.7,0,1.3-0.6,1.3-1.3v-0.5c0-0.7-0.6-1.3-1.3-1.3h-8.9c-3.7-0.1-6.6-3.3-6.4-6.9
			c0.1-3.5,2.9-6.3,6.4-6.4h2.8c1.6,0,2.9-1.3,2.9-2.9c0,0,0,0,0,0v-6.9c0-0.6,0.4-1,1-1s1,0.4,1,1v6.9c0,2.7-2.2,4.9-4.9,4.9h-2.8
			c-2.6,0-4.6,2.1-4.6,4.7c0,2.6,2.1,4.7,4.6,4.7h8.9c1.8,0,3.3,1.5,3.3,3.3v0.5c0,1.8-1.5,3.3-3.3,3.3h-1.5c-0.7,0-1.3,0.6-1.3,1.3
			c0,0.7,0.6,1.3,1.3,1.3h3.3c2.1,0,4,1.2,4.8,3.1c0.1,0.1,0.1,0.3,0.1,0.4C43.3,48.7,42.9,49.2,42.3,49.2z"/>
		<path class="st0" d="M49.7,74.8c-8.2,0-14.9-6.7-14.9-14.9c0-8.2,6.7-14.9,14.9-14.9c8.2,0,14.9,6.7,14.9,14.9c0,0,0,0,0,0
			C64.6,68.1,57.9,74.8,49.7,74.8z M49.7,47c-7.1,0-12.9,5.8-12.9,12.9s5.8,12.9,12.9,12.9S62.6,67,62.6,59.9l0,0
			C62.6,52.8,56.8,47,49.7,47L49.7,47z"/>
	</g>
</g>
</svg>
