<?xml version="1.0" encoding="utf-8"?>
<!-- Generator: Adobe Illustrator 22.0.1, SVG Export Plug-In . SVG Version: 6.00 Build 0)  -->
<svg version="1.1" id="레이어_1" xmlns="http://www.w3.org/2000/svg" xmlns:xlink="http://www.w3.org/1999/xlink" x="0px"
	 y="0px" viewBox="0 0 68.2 58" style="enable-background:new 0 0 68.2 58;" xml:space="preserve">
<style type="text/css">
	.st0{fill:#67919B;}
</style>
<g id="Layer_2">
	<g id="Layer_1-2">
		<path class="st0" d="M6.9,58H1c-0.6,0-1-0.4-1-1V20.8c0-0.4,0.2-0.7,0.5-0.9l13.9-7.3c0.3-0.2,0.7-0.2,1,0
			c0.3,0.2,0.5,0.5,0.5,0.9v17.8c0,0.6-0.4,1-1,1s-1-0.4-1-1V15.2L2,21.4V56h4.9c0.6,0,1,0.4,1,1S7.4,58,6.9,58z"/>
		<path class="st0" d="M30.5,58H6.7c-0.6,0-1-0.4-1-1V31.3c0-0.6,0.4-1,1-1h23.9c0.6,0,1,0.4,1,1V57C31.5,57.6,31.1,58,30.5,58z
			 M7.7,56h21.9V32.3H7.7V56z"/>
		<path class="st0" d="M67.2,58H50.7c-0.6,0-1-0.4-1-1V23.4c0-0.6,0.4-1,1-1h16.5c0.6,0,1,0.4,1,1V57C68.2,57.6,67.8,58,67.2,58z
			 M51.7,56h14.5V24.4H51.7V56z"/>
		<path class="st0" d="M40.1,58h-9.4c-0.6,0-1-0.4-1-1s0.4-1,1-1h8.4V12.2H25.6v19.1c0,0.6-0.4,1-1,1s-1-0.4-1-1V11.2
			c0-0.6,0.4-1,1-1h15.5c0.6,0,1,0.4,1,1V57C41.1,57.6,40.7,58,40.1,58L40.1,58z"/>
		<path class="st0" d="M50.7,58H40.1c-0.6,0-1-0.4-1-1V28.3c0-0.6,0.4-1,1-1h10.6c0.6,0,1,0.4,1,1V57C51.7,57.6,51.2,58,50.7,58z
			 M41.1,56h8.6V29.3h-8.6L41.1,56z"/>
		<path class="st0" d="M58.8,57.7c-0.6,0-1-0.4-1-1v-27c0-0.6,0.4-1,1-1s1,0.4,1,1v27C59.8,57.3,59.3,57.7,58.8,57.7z"/>
		<path class="st0" d="M24.1,41.2h-11c-0.6,0-1-0.4-1-1s0.4-1,1-1h11c0.6,0,1,0.4,1,1S24.7,41.2,24.1,41.2z"/>
		<path class="st0" d="M24.1,48.4h-11c-0.6,0-1-0.4-1-1s0.4-1,1-1h11c0.6,0,1,0.4,1,1S24.7,48.4,24.1,48.4z"/>
		<path class="st0" d="M31.2,18.5H25c-0.6,0-1-0.4-1-1s0.4-1,1-1h6.3c0.6,0,1,0.4,1,1S31.8,18.5,31.2,18.5L31.2,18.5z"/>
		<path class="st0" d="M31.2,25.4H25c-0.6,0-1-0.4-1-1s0.4-1,1-1h6.3c0.6,0,1,0.4,1,1S31.8,25.4,31.2,25.4L31.2,25.4z"/>
		<path class="st0" d="M49.7,34.4h-3.1c-0.6,0-1-0.4-1-1s0.4-1,1-1h3.1c0.6,0,1,0.4,1,1S50.2,34.4,49.7,34.4z"/>
		<path class="st0" d="M49.7,40h-3.1c-0.6,0-1-0.4-1-1s0.4-1,1-1h3.1c0.6,0,1,0.4,1,1S50.2,40,49.7,40z"/>
		<path class="st0" d="M49.7,45.6h-3.1c-0.6,0-1-0.4-1-1s0.4-1,1-1h3.1c0.6,0,1,0.4,1,1S50.2,45.6,49.7,45.6z"/>
		<path class="st0" d="M49.7,51.2h-3.1c-0.6,0-1-0.4-1-1s0.4-1,1-1h3.1c0.6,0,1,0.4,1,1S50.2,51.2,49.7,51.2z"/>
		<path class="st0" d="M37.2,12.2h-9.7c-0.6,0-1-0.4-1-1V7.4c0-0.6,0.4-1,1-1h9.7c0.6,0,1,0.4,1,1v3.7
			C38.2,11.7,37.8,12.2,37.2,12.2z M28.5,10.2h7.7V8.4h-7.7V10.2z"/>
		<path class="st0" d="M32.4,8.4c-0.6,0-1-0.4-1-1V1c0-0.6,0.4-1,1-1s1,0.4,1,1v6.4C33.4,8,32.9,8.4,32.4,8.4z"/>
	</g>
</g>
</svg>
