<?xml version="1.0" encoding="utf-8"?>
<!-- Generator: Adobe Illustrator 22.0.1, SVG Export Plug-In . SVG Version: 6.00 Build 0)  -->
<svg version="1.1" id="레이어_1" xmlns="http://www.w3.org/2000/svg" xmlns:xlink="http://www.w3.org/1999/xlink" x="0px"
	 y="0px" viewBox="0 0 73.2 73" style="enable-background:new 0 0 73.2 73;" xml:space="preserve">
<style type="text/css">
	.st0{fill:#AF9B7E;}
</style>
<g id="Layer_2">
	<g id="Layer_1-2">
		<path class="st0" d="M72.2,73H1c-0.3,0-0.6-0.1-0.8-0.3C0,72.4,0,72.1,0,71.8l6-36.2c0.1-0.5,0.5-0.8,1-0.8h59.2
			c0.5,0,0.9,0.3,1,0.8l6,36.2c0,0.3,0,0.6-0.2,0.8C72.7,72.9,72.5,73,72.2,73z M2.2,71H71l-5.7-34.2H7.8L2.2,71z"/>
		<path class="st0" d="M36.6,73c-0.6,0-1-0.4-1-1V35.8c0-0.6,0.4-1,1-1s1,0.4,1,1V72C37.6,72.6,37.1,73,36.6,73z"/>
		<path class="st0" d="M54.7,73c-0.5,0-0.9-0.4-1-0.9L50,35.9c-0.1-0.6,0.3-1,0.9-1.1s1,0.3,1.1,0.9l3.7,36.2c0.1,0.5-0.3,1-0.9,1.1
			c0,0,0,0,0,0L54.7,73z"/>
		<path class="st0" d="M18.3,73h-0.1c-0.5-0.1-0.9-0.5-0.9-1.1c0,0,0,0,0,0l3.9-36.2c0.1-0.6,0.6-1,1.1-0.9s1,0.6,0.9,1.1l-3.9,36.2
			C19.2,72.6,18.8,73,18.3,73z"/>
		<path class="st0" d="M67.9,47.5H5.1c-0.6,0-1-0.4-1-1s0.4-1,1-1h62.8c0.6,0,1,0.4,1,1S68.5,47.5,67.9,47.5z"/>
		<path class="st0" d="M69.7,59.8H3.2c-0.6,0-1-0.4-1-1s0.4-1,1-1h66.5c0.6,0,1,0.4,1,1S70.3,59.8,69.7,59.8z"/>
		<path class="st0" d="M27.6,36.8c-0.3,0-0.6-0.1-0.7-0.3C22,31.1,22.4,22.9,27.6,18s13.5-4.5,18.4,0.7c4.6,5,4.6,12.7,0,17.6
			c-0.4,0.4-1,0.4-1.4,0.1c-0.4-0.4-0.4-1-0.1-1.4l0,0c4.1-4.5,3.9-11.4-0.6-15.5s-11.4-3.9-15.5,0.6c-3.9,4.2-3.9,10.7,0,14.9
			c0.4,0.4,0.3,1-0.1,1.4C28.1,36.7,27.9,36.7,27.6,36.8z"/>
		<path class="st0" d="M20,29.2h-5.1c-0.6,0-1-0.4-1-1s0.4-1,1-1H20c0.6,0,1,0.4,1,1S20.6,29.2,20,29.2z"/>
		<path class="st0" d="M51,20.7c-0.4,0-0.7-0.2-0.9-0.5c-0.3-0.5-0.1-1.1,0.4-1.4c0,0,0,0,0,0l4.4-2.5c0.5-0.3,1.1-0.1,1.4,0.4
			c0.3,0.5,0.1,1.1-0.3,1.4c0,0,0,0,0,0l-4.4,2.6C51.3,20.6,51.2,20.7,51,20.7z"/>
		<path class="st0" d="M44.8,14.4c-0.2,0-0.4,0-0.5-0.1c-0.5-0.3-0.6-0.9-0.4-1.4l2.6-4.4c0.3-0.5,0.9-0.6,1.4-0.4
			c0.5,0.3,0.6,0.9,0.4,1.4c0,0,0,0,0,0l-2.6,4.4C45.5,14.3,45.2,14.4,44.8,14.4z"/>
		<path class="st0" d="M22.4,20.7c-0.2,0-0.3,0-0.5-0.1L17.5,18c-0.5-0.3-0.6-0.9-0.4-1.4c0,0,0,0,0,0c0.3-0.5,0.9-0.6,1.4-0.4
			l4.4,2.5c0.5,0.3,0.6,0.9,0.4,1.4C23.1,20.5,22.8,20.7,22.4,20.7L22.4,20.7z"/>
		<path class="st0" d="M28.6,14.4c-0.4,0-0.7-0.2-0.9-0.5l-2.6-4.4c-0.3-0.5-0.1-1.1,0.4-1.4c0,0,0,0,0,0C26,7.9,26.6,8,26.9,8.5
			l2.6,4.4c0.3,0.5,0.1,1.1-0.4,1.4C29,14.4,28.8,14.4,28.6,14.4z"/>
		<path class="st0" d="M36.5,12.1c-0.6,0-1-0.4-1-1V6c0-0.6,0.4-1,1-1s1,0.4,1,1v5.1C37.5,11.7,37,12.1,36.5,12.1
			C36.5,12.1,36.5,12.1,36.5,12.1z"/>
		<path class="st0" d="M58.3,29.2h-5.1c-0.6,0-1-0.4-1-1s0.4-1,1-1h5.1c0.6,0,1,0.4,1,1S58.9,29.2,58.3,29.2z"/>
		<path class="st0" d="M61.6,21.8c-0.2,0-0.3,0-0.5-0.1c-0.4-0.2-0.6-0.7-0.5-1.1l2.2-8.9h-3.6c-0.4,0-0.8-0.2-0.9-0.6
			c-0.2-0.4-0.1-0.8,0.2-1.1l9.5-9.8C68.2,0,68.6-0.1,69,0.1c0.4,0.2,0.6,0.6,0.6,1l-1.3,8.6h2.8c0.6,0,1,0.5,1,1
			c0,0.2-0.1,0.5-0.3,0.7l-9.6,10.1C62.1,21.7,61.9,21.8,61.6,21.8z M61.5,9.8h2.6c0.6,0,1,0.5,1,1c0,0.1,0,0.2,0,0.2l-1.6,6.4
			l5.4-5.7h-1.6c-0.6,0-1-0.4-1-1c0-0.1,0-0.1,0-0.2l1-6.7L61.5,9.8z"/>
		<path class="st0" d="M9.1,19.4H2.5c-0.6,0-1-0.4-1-1s0.4-1,1-1h6.6c0.6,0,1,0.4,1,1S9.6,19.4,9.1,19.4z"/>
		<path class="st0" d="M5.8,22.7c-0.6,0-1-0.4-1-1v-6.6c0-0.6,0.4-1,1-1s1,0.4,1,1v6.6C6.8,22.2,6.3,22.7,5.8,22.7z"/>
		<path class="st0" d="M18.5,5.9H12c-0.6,0-1-0.4-1-1s0.4-1,1-1h6.5c0.6,0,1,0.4,1,1S19.1,5.9,18.5,5.9L18.5,5.9z"/>
		<path class="st0" d="M15.2,9.2c-0.6,0-1-0.4-1-1V1.7c0-0.6,0.4-1,1-1s1,0.4,1,1v6.6C16.2,8.8,15.8,9.2,15.2,9.2z"/>
	</g>
</g>
</svg>
