<?xml version="1.0" encoding="utf-8"?>
<!-- Generator: Adobe Illustrator 22.0.1, SVG Export Plug-In . SVG Version: 6.00 Build 0)  -->
<svg version="1.1" id="레이어_1" xmlns="http://www.w3.org/2000/svg" xmlns:xlink="http://www.w3.org/1999/xlink" x="0px"
	 y="0px" viewBox="0 0 68.8 51.4" style="enable-background:new 0 0 68.8 51.4;" xml:space="preserve">
<style type="text/css">
	.st0{fill:#67919B;}
</style>
<g id="Layer_2">
	<g id="Layer_1-2">
		<path class="st0" d="M20.5,0.2h1.7v5.5l2-2.7h1.9l-2.3,2.9l2.5,3.4h-2l-2.1-3v3h-1.7V0.2z"/>
		<path class="st0" d="M27.2,3H29v1c0.2-0.3,0.4-0.6,0.7-0.8c0.7-0.4,1.6-0.4,2.3-0.1c0.3,0.2,0.6,0.5,0.7,0.8
			c0.2-0.4,0.6-0.6,0.9-0.8C34,3,34.4,2.9,34.8,2.9c0.3,0,0.6,0,0.8,0.1c0.3,0.1,0.5,0.2,0.7,0.4c0.2,0.2,0.3,0.5,0.4,0.8
			c0.1,0.4,0.2,0.7,0.2,1.1v4h-1.8V5.5c0-0.3-0.1-0.6-0.2-0.9c-0.2-0.2-0.5-0.3-0.7-0.3c-0.3,0-0.6,0.1-0.9,0.3
			c-0.3,0.3-0.4,0.6-0.3,1v3.7h-1.7V5.5c0-0.3-0.1-0.6-0.3-0.9c-0.2-0.2-0.5-0.3-0.7-0.3c-0.3,0-0.6,0.1-0.9,0.3
			c-0.3,0.3-0.4,0.6-0.4,1v3.7h-1.7V3z"/>
		<path class="st0" d="M41,0h1.4l-3.7,11.1h-1.4L41,0z"/>
		<path class="st0" d="M43.4,0.2h1.7V4c0.2-0.3,0.4-0.6,0.8-0.8c0.4-0.2,0.8-0.4,1.3-0.3c0.3,0,0.6,0,0.9,0.1
			c0.3,0.1,0.5,0.2,0.7,0.4c0.2,0.2,0.3,0.5,0.4,0.8c0.1,0.4,0.2,0.7,0.2,1.1v4h-1.7V5.6c0-0.4-0.1-0.7-0.3-1
			c-0.2-0.2-0.5-0.3-0.8-0.3c-0.3,0-0.7,0.1-0.9,0.3c-0.3,0.3-0.4,0.6-0.4,1v3.7h-1.7V0.2z"/>
		<path class="st0" d="M67.8,51.4c-0.6,0-1-0.4-1-1C66.8,32.5,52.3,18,34.4,18S2,32.5,2,50.4c0,0.6-0.4,1-1,1s-1-0.4-1-1
			C0,31.4,15.4,16,34.4,16c19,0,34.4,15.4,34.4,34.4C68.8,51,68.4,51.4,67.8,51.4z"/>
		<path class="st0" d="M59.6,51.4c-0.6,0-1-0.4-1-1c-0.3-13.4-11.3-24-24.7-23.7C21,27,10.5,37.4,10.2,50.4c0,0.6-0.4,1-1,1
			s-1-0.4-1-1c0.3-14.5,12.2-26,26.7-25.7C49,25,60.3,36.4,60.6,50.4C60.6,51,60.2,51.4,59.6,51.4z"/>
		<path class="st0" d="M34.4,51.4c-2.2,0-4-1.8-4-4s1.8-4,4-4s4,1.8,4,4S36.6,51.4,34.4,51.4z M34.4,45.4c-1.1,0-2,0.9-2,2
			s0.9,2,2,2s2-0.9,2-2C36.4,46.3,35.6,45.4,34.4,45.4C34.4,45.4,34.4,45.4,34.4,45.4L34.4,45.4z"/>
		<path class="st0" d="M35.2,45.2h-1.7c-0.3,0-0.6-0.2-0.7-0.5l-1.6-3.3c-0.1-0.2-0.1-0.4,0-0.6l2.5-8.1c0.1-0.3,0.4-0.6,0.8-0.6
			c0.4,0,0.7,0.2,0.8,0.6l2.5,8.1c0.1,0.2,0.1,0.4,0,0.6L36,44.7C35.9,45,35.6,45.2,35.2,45.2z M34.1,43.6h0.6L36,41l-1.6-5.2
			L32.8,41L34.1,43.6z"/>
		<path class="st0" d="M4.1,51.4H1c-0.6,0-1-0.4-1-1s0.4-1,1-1h3.1c0.6,0,1,0.4,1,1S4.7,51.4,4.1,51.4z"/>
		<path class="st0" d="M67.8,51.4h-3.1c-0.6,0-1-0.4-1-1s0.4-1,1-1h3.1c0.6,0,1,0.4,1,1S68.4,51.4,67.8,51.4z"/>
		<path class="st0" d="M60.7,36.3c-0.6,0-1-0.4-1-1c0-0.4,0.2-0.7,0.5-0.9l2.7-1.6c0.5-0.3,1.1-0.1,1.3,0.4c0.2,0.5,0.1,1-0.3,1.3
			l-2.7,1.6C61,36.2,60.8,36.3,60.7,36.3z"/>
		<path class="st0" d="M49.6,25.2c-0.2,0-0.3-0.1-0.5-0.1c-0.5-0.3-0.6-0.9-0.4-1.4l1.6-2.7c0.3-0.5,0.9-0.7,1.3-0.4
			s0.7,0.9,0.4,1.3c0,0,0,0,0,0.1l-1.6,2.7C50.2,25,49.9,25.2,49.6,25.2z"/>
		<path class="st0" d="M34.4,21.1c-0.6,0-1-0.4-1-1V17c0-0.6,0.4-1,1-1s1,0.4,1,1v3.1C35.4,20.7,35,21.1,34.4,21.1
			C34.4,21.1,34.4,21.1,34.4,21.1z"/>
		<path class="st0" d="M34.4,51.4c-0.3,0-0.5-0.1-0.7-0.3l0,0c-0.4-0.4-0.4-1,0-1.4c0.4-0.4,1-0.4,1.4,0c0.4,0.4,0.4,1,0,1.4
			C34.9,51.3,34.7,51.4,34.4,51.4z"/>
		<path class="st0" d="M19.3,25.2c-0.4,0-0.7-0.2-0.9-0.5L16.9,22c-0.3-0.5-0.2-1.1,0.3-1.4c0.5-0.3,1.1-0.2,1.4,0.3c0,0,0,0,0,0.1
			l1.6,2.7c0.3,0.5,0.1,1.1-0.4,1.4C19.6,25.2,19.5,25.2,19.3,25.2z"/>
		<path class="st0" d="M34.4,51.4c-0.3,0-0.5-0.1-0.7-0.3l0,0c-0.4-0.4-0.4-1,0-1.4c0.4-0.4,1-0.4,1.4,0c0.4,0.4,0.4,1,0,1.4
			C34.9,51.3,34.7,51.4,34.4,51.4z"/>
		<path class="st0" d="M8.2,36.3c-0.2,0-0.3-0.1-0.5-0.1L5,34.6c-0.5-0.3-0.6-0.9-0.3-1.4C5,32.8,5.5,32.6,6,32.9l2.7,1.6
			c0.5,0.3,0.6,0.9,0.4,1.4C8.9,36.1,8.6,36.3,8.2,36.3L8.2,36.3z"/>
	</g>
</g>
</svg>
