<?xml version="1.0" encoding="utf-8"?>
<!-- Generator: Adobe Illustrator 22.0.1, SVG Export Plug-In . SVG Version: 6.00 Build 0)  -->
<svg version="1.1" id="레이어_1" xmlns="http://www.w3.org/2000/svg" xmlns:xlink="http://www.w3.org/1999/xlink" x="0px"
	 y="0px" viewBox="0 0 68 67.4" style="enable-background:new 0 0 68 67.4;" xml:space="preserve">
<style type="text/css">
	.st0{fill:#AF9B7E;}
</style>
<g id="Layer_2">
	<g id="Layer_1-2">
		<path class="st0" d="M56.7,12.2c-3.4,0-6.1-2.7-6.1-6.1c0-3.4,2.7-6.1,6.1-6.1c3.4,0,6.1,2.7,6.1,6.1c0,0,0,0,0,0
			C62.8,9.5,60,12.2,56.7,12.2z M56.7,2c-2.3,0-4.1,1.8-4.1,4.1s1.8,4.1,4.1,4.1c2.3,0,4.1-1.8,4.1-4.1c0,0,0,0,0,0
			C60.8,3.8,58.9,2,56.7,2z"/>
		<path class="st0" d="M21.4,42.4c-2.6,0-4.7-2.1-4.7-4.7c0-2.6,2.1-4.7,4.7-4.7s4.7,2.1,4.7,4.7S24,42.4,21.4,42.4L21.4,42.4z
			 M21.4,35c-1.5,0-2.7,1.2-2.7,2.7c0,1.5,1.2,2.7,2.7,2.7c1.5,0,2.7-1.2,2.7-2.7c0,0,0,0,0,0C24.1,36.2,22.9,35,21.4,35L21.4,35z"
			/>
		<path class="st0" d="M10.5,64.1H1c-0.6,0-1-0.4-1-1V54c0-0.6,0.4-1,1-1h9.5c0.6,0,1,0.4,1,1v9.1C11.5,63.7,11,64.1,10.5,64.1z
			 M2,62.1h7.5V55H2V62.1z"/>
		<path class="st0" d="M15.3,67.4h-4.9c-0.6,0-1-0.4-1-1V50.6c0-0.6,0.4-1,1-1h4.9c0.6,0,1,0.4,1,1v15.8
			C16.3,67,15.9,67.4,15.3,67.4z M11.5,65.4h2.9V51.6h-2.9V65.4z"/>
		<path class="st0" d="M35.7,63.4H15.3c-0.6,0-1-0.4-1-1v-7.7c0-0.6,0.4-1,1-1h2.9c0.5-4,3.9-7,7.9-7c0.3,0,0.6,0,0.9,0
			c0.7-0.8,1.4-1.5,2.3-2c-2.1-4.2-0.8-9.3,3.1-12c-1.6-2-2.6-4.4-2.5-7c0-6.1,4.9-11,11-11c2.9,0,5.7,1.2,7.8,3.2
			c3.3-3.9,9.2-4.4,13.1-1c2.1,1.8,3.3,4.4,3.3,7.2c0,1.2-0.2,2.4-0.7,3.5c4.3,4.4,4.9,11.2,1.6,16.4c-0.3,0.5-0.9,0.7-1.4,0.4
			c-0.5-0.3-0.7-0.9-0.4-1.4c0,0,0.1-0.1,0.1-0.1c3-4.6,2.2-10.6-1.8-14.3c-0.3-0.3-0.4-0.8-0.2-1.2c1.8-3.6,0.3-8-3.3-9.8
			c-3.3-1.6-7.3-0.5-9.3,2.6c-0.3,0.5-0.9,0.6-1.4,0.3c-0.1-0.1-0.2-0.1-0.2-0.2c-3-4-8.7-4.7-12.6-1.7s-4.7,8.7-1.7,12.6
			c0.3,0.4,0.7,0.8,1.1,1.2c0.2,0.2,0.3,0.5,0.3,0.9c0,0.3-0.2,0.6-0.5,0.7c-3.7,1.9-5.2,6.4-3.3,10.1c0.1,0.2,0.2,0.4,0.4,0.6
			c0.3,0.5,0.2,1.1-0.3,1.4c0,0-0.1,0-0.1,0.1c-1.1,0.6-2.1,1.4-2.9,2.4c-0.2,0.3-0.6,0.5-1,0.4c-0.4-0.1-0.7-0.1-1.1-0.1
			c-3.3,0-6,2.7-6,6c0,0.6-0.4,1-1,1h-2.8v5.7h19.1c0.1,0,0.2,0,0.3,0c2.1-0.3,4-1.1,5.6-2.5c0.4-0.4,1.1-0.3,1.4,0.1
			s0.3,1.1-0.1,1.4l0,0c-1.9,1.6-4.2,2.6-6.7,2.9C35.9,63.4,35.8,63.4,35.7,63.4z"/>
		<path class="st0" d="M50.5,51.2c0,0.6-0.2,1.1-0.5,1.6c-0.3,0.5-0.7,0.8-1.2,1c-0.6,0.3-1.2,0.4-1.8,0.4c-1,0-2-0.4-2.7-1.1
			c-0.7-0.9-1.1-2-1-3.1v-0.4c0-0.8,0.1-1.5,0.4-2.2c0.3-0.6,0.7-1.1,1.3-1.5c0.6-0.3,1.2-0.5,1.9-0.5c0.9,0,1.8,0.2,2.5,0.8
			c0.6,0.6,1,1.4,1.1,2.3h-2c0-0.4-0.1-0.8-0.4-1.1C47.8,47.1,47.4,47,47,47c-0.5,0-0.9,0.2-1.1,0.6c-0.3,0.6-0.4,1.2-0.4,1.8V50
			c-0.1,0.7,0.1,1.4,0.3,2c0.3,0.4,0.7,0.6,1.2,0.6c0.4,0,0.8-0.1,1.1-0.3c0.3-0.3,0.4-0.7,0.4-1.1L50.5,51.2z"/>
		<path class="st0" d="M58.7,50c0,0.8-0.1,1.5-0.5,2.2c-0.3,0.6-0.7,1.1-1.3,1.4c-1.2,0.7-2.7,0.7-3.9,0c-0.6-0.3-1-0.8-1.3-1.4
			c-0.3-0.7-0.5-1.4-0.5-2.1v-0.5c0-0.8,0.1-1.5,0.5-2.2c0.3-0.6,0.7-1.1,1.3-1.5c0.6-0.4,1.3-0.5,2-0.5c0.7,0,1.4,0.2,1.9,0.5
			c0.6,0.4,1,0.9,1.3,1.5c0.3,0.7,0.5,1.4,0.5,2.2L58.7,50z M56.6,49.6c0-0.7-0.1-1.3-0.4-1.9C56,47.3,55.5,47,55,47
			c-1,0-1.6,0.8-1.6,2.3V50c0,0.7,0.1,1.3,0.4,1.9c0.4,0.7,1.3,0.9,2,0.4c0.2-0.1,0.3-0.3,0.4-0.4c0.3-0.6,0.5-1.2,0.4-1.9
			L56.6,49.6z"/>
		<path class="st0" d="M59.2,55.2l1.5-1.6c0.2-0.2,0.4-0.4,0.5-0.6c0.1-0.2,0.2-0.4,0.2-0.6c0-0.1,0-0.2-0.1-0.3
			c-0.1-0.1-0.2-0.1-0.3-0.1c-0.1,0-0.3,0-0.4,0.2c-0.1,0.2-0.2,0.3-0.2,0.5h-1.2c0-0.5,0.2-0.9,0.5-1.2c0.4-0.3,0.8-0.4,1.3-0.4
			c0.4,0,0.9,0.1,1.2,0.4c0.3,0.3,0.4,0.6,0.4,1c0,0.3-0.1,0.6-0.2,0.8c-0.2,0.3-0.4,0.5-0.6,0.7l-0.6,0.6h1.5v1h-3.6L59.2,55.2z"/>
		<path class="st0" d="M53,65.5c-8.3,0-15-6.7-15-15c0-8.3,6.7-15,15-15s15,6.7,15,15c0,4-1.6,7.8-4.4,10.6
			C60.8,63.9,57,65.5,53,65.5z M53,37.5c-7.2,0-13,5.8-13,13s5.8,13,13,13c7.2,0,13-5.8,13-13c0-3.5-1.4-6.8-3.8-9.2
			C59.8,38.9,56.5,37.5,53,37.5L53,37.5z"/>
		<path class="st0" d="M60.5,47.7c-0.6,0-1-0.5-1-1c0-0.3,0.2-0.6,0.4-0.8l4.4-3.1c0.5-0.3,1.1-0.1,1.4,0.3c0.3,0.4,0.2,1-0.2,1.3
			l-4.4,3.1C60.9,47.7,60.7,47.7,60.5,47.7z"/>
		<path class="st0" d="M42,60.7c-0.6,0-1-0.5-1-1c0-0.3,0.2-0.6,0.4-0.8l5-3.5c0.5-0.3,1.1-0.2,1.4,0.2c0.3,0.4,0.2,1.1-0.2,1.4
			c0,0,0,0,0,0l-5,3.5C42.4,60.6,42.2,60.7,42,60.7z"/>
	</g>
</g>
</svg>
