<?xml version="1.0" encoding="utf-8"?>
<!-- Generator: Adobe Illustrator 22.0.1, SVG Export Plug-In . SVG Version: 6.00 Build 0)  -->
<svg version="1.1" id="레이어_1" xmlns="http://www.w3.org/2000/svg" xmlns:xlink="http://www.w3.org/1999/xlink" x="0px"
	 y="0px" viewBox="0 0 71.5 66.2" style="enable-background:new 0 0 71.5 66.2;" xml:space="preserve">
<style type="text/css">
	.st0{fill:#64A371;}
</style>
<g id="Layer_2">
	<g id="Layer_1-2">
		<path class="st0" d="M38.6,55.9c-5.9,0-10.7-6.4-10.7-14.2s4.8-14.2,10.7-14.2s10.7,6.4,10.7,14.2S44.5,55.9,38.6,55.9z
			 M38.6,29.4c-4.8,0-8.7,5.5-8.7,12.2s3.9,12.2,8.7,12.2s8.7-5.5,8.7-12.2S43.3,29.4,38.6,29.4z"/>
		<path class="st0" d="M38.6,66.2c-0.6,0-1-0.4-1-1V35.4c0-0.6,0.4-1,1-1s1,0.4,1,1v29.8C39.6,65.7,39.1,66.2,38.6,66.2
			C38.6,66.2,38.6,66.2,38.6,66.2z"/>
		<path class="st0" d="M38.6,43.9c-0.6,0-1-0.5-1-1c0-0.2,0.1-0.4,0.2-0.6l4.4-6c0.3-0.5,0.9-0.6,1.4-0.3c0.5,0.3,0.6,0.9,0.3,1.4
			c0,0,0,0.1-0.1,0.1l-4.4,6C39.2,43.8,38.9,43.9,38.6,43.9z"/>
		<path class="st0" d="M38.6,50.1c-0.3,0-0.6-0.2-0.8-0.4L32.9,43c-0.3-0.4-0.2-1.1,0.2-1.4c0.4-0.3,1.1-0.2,1.4,0.2l4.8,6.7
			c0.3,0.4,0.2,1.1-0.2,1.4c0,0,0,0,0,0C39,50,38.8,50.1,38.6,50.1z"/>
		<path class="st0" d="M53.5,51.9c-2.9,0-5.6-1.6-7-4.2c-0.2-0.5,0-1.1,0.5-1.3c0.5-0.2,1.1-0.1,1.3,0.4c1,2,3.1,3.2,5.3,3.2
			c1.1,0,2.1-0.3,3-0.9l0.2-0.1c0.3-0.2,0.6-0.2,0.9-0.1c1,0.4,2.1,0.6,3.1,0.6c4.8,0,8.7-3.9,8.7-8.7c0-2-0.7-3.9-1.9-5.5
			c-0.3-0.4-0.3-0.9,0-1.2c0.8-1,1.2-2.2,1.2-3.5c0-3.1-2.3-5.6-5.4-5.9c-0.3,0-0.6-0.2-0.7-0.4c-0.2-0.3-0.2-0.6-0.1-0.9
			c0.2-0.6,0.3-1.1,0.3-1.7c-0.1-3.2-2.7-5.7-5.9-5.6c-2.2,0-4.2,1.4-5.1,3.4C51.7,19.7,51.4,20,51,20c-2.3,0.4-4,2.4-4,4.7
			c0,0.9,0.3,1.8,0.8,2.5c0.3,0.5,0.1,1.1-0.3,1.4c-1,0.6-1.9,1.6-2.4,2.7c-0.2,0.5-0.8,0.7-1.3,0.4c-0.5-0.2-0.7-0.8-0.5-1.2
			c0.5-1.2,1.3-2.2,2.4-3.1c-0.4-0.9-0.6-1.8-0.6-2.8c0-3.1,2.1-5.8,5.1-6.6c1.9-3.8,6.6-5.4,10.4-3.4c2.6,1.3,4.3,4,4.3,6.9
			c0,0.4,0,0.8-0.1,1.2c3.5,0.9,6,4,6,7.7c0,1.4-0.4,2.8-1.1,4.1c1.3,1.8,1.9,3.9,1.9,6.1c0,5.9-4.8,10.7-10.7,10.7
			c-1.2,0-2.3-0.2-3.4-0.6C56.2,51.5,54.9,51.8,53.5,51.9z"/>
		<path class="st0" d="M57.1,58.4c-0.6,0-1-0.4-1-1V25.5c0-0.6,0.4-1,1-1s1,0.4,1,1v31.8C58.1,57.9,57.6,58.4,57.1,58.4z"/>
		<path class="st0" d="M57.4,42.1c-0.2,0-0.4-0.1-0.6-0.2c-0.4-0.3-0.5-1-0.2-1.4l4.5-5.8c0.4-0.4,1-0.5,1.4-0.1s0.5,1,0.1,1.4l0,0
			l-4.5,5.7C58,42,57.7,42.1,57.4,42.1z"/>
		<path class="st0" d="M56.7,36.4c-0.3,0-0.6-0.1-0.8-0.4l-4.8-5.8c-0.4-0.4-0.3-1.1,0.1-1.4c0.4-0.4,1.1-0.3,1.4,0.1l0,0l4.8,5.8
			c0.3,0.4,0.3,1.1-0.1,1.4C57.1,36.3,56.9,36.4,56.7,36.4z"/>
		<path class="st0" d="M27.2,66.2H10.7c-3.4,0-6.2-2.8-6.2-6.2c0-2.5,1.5-4.8,3.9-5.8c0.3-3.4,3.3-5.9,6.7-5.6c1.6,0.1,3,0.8,4.1,2
			c2.6-0.3,5.1,1.1,6.2,3.5c0.6-0.2,1.2-0.3,1.9-0.3c3.4,0,6.2,2.8,6.2,6.2C33.4,63.4,30.7,66.1,27.2,66.2z M14.6,50.5
			c-2.3,0-4.2,1.9-4.2,4.2c0,0,0,0.1,0,0.2c0,0.5-0.3,0.9-0.8,1c-2.2,0.6-3.6,2.9-3,5.1c0.5,1.9,2.2,3.2,4.1,3.2h16.5
			c2.3,0,4.2-1.9,4.2-4.2s-1.9-4.2-4.2-4.2c-0.7,0-1.4,0.2-2,0.5c-0.3,0.1-0.6,0.1-0.9,0c-0.3-0.1-0.5-0.4-0.6-0.7
			c-0.5-1.8-2.1-3.1-4-3.1c-0.3,0-0.6,0-0.9,0.1c-0.4,0.1-0.8-0.1-1-0.4C17.1,51.2,15.9,50.5,14.6,50.5z"/>
		<path class="st0" d="M58.9,66.2h-11c-2.5,0-4.5-2-4.5-4.5c0-1.7,1-3.3,2.6-4c0.3-2.2,2.2-3.9,4.4-3.9c1.2,0,2.3,0.5,3.2,1.3
			c1.7-0.1,3.3,0.8,4.2,2.3c0.4-0.1,0.7-0.1,1.1-0.1c2.5,0.1,4.4,2.2,4.3,4.7C63,64.2,61.2,66,58.9,66.2L58.9,66.2z M48,58.2
			C48,58.2,48,58.3,48,58.2c0,0.6-0.3,1-0.8,1.1c-1.1,0.3-1.8,1.3-1.8,2.4c0,1.4,1.1,2.5,2.5,2.5h11c1.4-0.1,2.4-1.3,2.3-2.6
			c-0.1-1.2-1.1-2.2-2.3-2.3c-0.4,0-0.8,0.1-1.2,0.3c-0.3,0.1-0.6,0.1-0.9,0c-0.3-0.1-0.5-0.4-0.6-0.7c-0.3-1.2-1.6-2-2.9-1.8
			c-0.4,0.1-0.8-0.1-1-0.4c-0.8-1.1-2.4-1.3-3.4-0.5C48.3,56.7,48,57.4,48,58.2z"/>
		<path class="st0" d="M11.5,21.2H1c-0.6,0-1-0.4-1-1c0-0.3,0.1-0.6,0.4-0.8C0.5,19.3,14.9,8.3,14.9,1c0-0.6,0.4-1,1-1
			c0.6,0,1,0.4,1,1c0,6.4-8.8,14.6-13.1,18.2h7.7c0.6,0,1,0.4,1,1S12,21.2,11.5,21.2z"/>
		<path class="st0" d="M11.9,32H1c-0.6,0-1-0.4-1-1c0-0.3,0.1-0.5,0.3-0.7c0.1,0,5.2-5.3,7.2-10.5c0.2-0.5,0.8-0.8,1.3-0.5
			s0.8,0.8,0.5,1.3C7.8,24,5.8,27.2,3.2,30h8.7c0.6,0,1,0.4,1,1S12.5,32,11.9,32z"/>
		<path class="st0" d="M28.9,42.8H1c-0.6,0-1-0.5-1-1c0-0.3,0.1-0.5,0.3-0.7c0.1,0,5.2-5.3,7.2-10.5c0.2-0.5,0.8-0.7,1.3-0.5
			c0.5,0.2,0.8,0.8,0.6,1.3c-1.6,3.4-3.6,6.6-6.1,9.4h25.6c0.6,0,1,0.4,1,1S29.4,42.8,28.9,42.8z"/>
		<path class="st0" d="M30.8,21.2H20.3c-0.6,0-1-0.4-1-1s0.4-1,1-1H28C23.7,15.6,14.9,7.4,14.9,1c0-0.6,0.4-1,1-1c0.6,0,1,0.4,1,1
			c0,7.3,14.4,18.3,14.5,18.4c0.4,0.3,0.5,1,0.2,1.4C31.4,21.1,31.1,21.2,30.8,21.2z"/>
		<path class="st0" d="M30.8,32H19.9c-0.6,0-1-0.4-1-1s0.4-1,1-1h8.7c-2.5-2.8-4.6-6-6.1-9.4c-0.2-0.5,0-1.1,0.5-1.3
			c0.5-0.2,1.1,0,1.3,0.5c2.1,5.2,7.2,10.4,7.2,10.5c0.4,0.4,0.4,1,0,1.4C31.3,31.9,31.1,32,30.8,32L30.8,32z"/>
		<path class="st0" d="M29,40.8c-0.3,0-0.6-0.1-0.8-0.4c-2.4-2.7-4.3-5.7-5.8-9c-0.2-0.5,0-1.1,0.5-1.3s1.1,0,1.3,0.5l0,0
			c1.4,3.1,3.2,5.9,5.5,8.5c0.4,0.4,0.3,1.1-0.1,1.4c0,0,0,0,0,0C29.5,40.7,29.2,40.7,29,40.8z"/>
		<path class="st0" d="M15.8,49.6c-0.6,0-1-0.4-1-1v-6.8c0-0.6,0.4-1,1-1c0.6,0,1,0.4,1,1v6.8C16.8,49.1,16.3,49.6,15.8,49.6
			L15.8,49.6z"/>
	</g>
</g>
</svg>
