<?xml version="1.0" encoding="utf-8"?>
<!-- Generator: Adobe Illustrator 23.0.1, SVG Export Plug-In . SVG Version: 6.00 Build 0)  -->
<svg version="1.1" id="Layer_1" xmlns="http://www.w3.org/2000/svg" xmlns:xlink="http://www.w3.org/1999/xlink" x="0px" y="0px"
	 viewBox="0 0 18 18" style="enable-background:new 0 0 18 18;" xml:space="preserve">
<style type="text/css">
	.st0{fill:none;}
	.st1{fill:#FFFFFF;}
</style>
<path class="st0" d="M0,0h18v18H0V0z"/>
<path class="st1" d="M12.4,9c0-1.3-0.8-2.5-1.9-3v1.7l1.8,1.8C12.4,9.3,12.4,9.2,12.4,9z M14.2,9c0,0.7-0.2,1.4-0.4,2l1.1,1.1
	c0.5-0.9,0.8-2,0.8-3.1c0-3.2-2.2-5.9-5.2-6.6V4C12.7,4.6,14.2,6.6,14.2,9z M3.2,2.2l-1,1l3.5,3.5H2.2v4.5h3L9,15v-5l3.2,3.2
	c-0.5,0.4-1.1,0.7-1.7,0.9v1.5c1-0.2,2-0.7,2.8-1.4l1.5,1.5l1-1L9,8L3.2,2.2z M9,3L7.4,4.6L9,6.1V3z"/>
</svg>
